<svg id="Layer_3" data-name="Layer 3" xmlns="http://www.w3.org/2000/svg" viewBox="0 0 158.3481 52"><defs><style>.cls-1{fill:none;stroke:#000;stroke-miterlimit:10;stroke-width:2px;}.cls-2{fill:#140303;}</style></defs><path d="M948.43311,532.61572a8.65544,8.65544,0,0,1,5.92187,2.28614,8.14763,8.14763,0,0,1,2.57422,6.42626,9.22513,9.22513,0,0,1-2.502,6.71387,8.06477,8.06477,0,0,1-5.99414,2.57324,6.20562,6.20562,0,0,1-3.67188-1.043v4.35546a2.65293,2.65293,0,0,0,.81055,1.78223q.81006.88184.80957,1.31348v.14453q0,.68262-.86426.68359h-7.63184q-.86426,0-.86425-.68359v-.14453a2.5981,2.5981,0,0,1,.7207-1.31348,2.81775,2.81775,0,0,0,.71973-1.78223V539.168a2.08352,2.08352,0,0,0-.86426-1.56592q-.86426-.73755-.86328-1.20605v-.18018q0-.57568.82715-1.04394L942.313,532.832a1.35718,1.35718,0,0,1,1.15234-.1084.88781.88781,0,0,1,.36035.82813v1.04394A5.25505,5.25505,0,0,1,948.43311,532.61572Zm-.57618,16.23584q2.73633,0,2.73633-4.53515a27.63354,27.63354,0,0,0-.3418-4.32032,12.99312,12.99312,0,0,0-1.22363-3.88818q-.88331-1.72779-2.10644-1.728a1.86587,1.86587,0,0,0-1.56641.792,3.33458,3.33458,0,0,0-.59375,2.05175v6.5166a6.60874,6.60874,0,0,0,.93652,3.67188A2.62386,2.62386,0,0,0,947.85693,548.85156Z" transform="translate(-868.92534 -514.98583)"/><path d="M962.33008,550.25586q-.86425,0-.86524-.68359v-.14454a2.67624,2.67624,0,0,1,.72071-1.332,2.87788,2.87788,0,0,0,.7207-1.7998v-6.83985a2.8518,2.8518,0,0,0-.7207-1.81835,2.74581,2.74581,0,0,1-.72071-1.20606v-.14355q0-.43214.82813-.82813l5.4375-2.66406a1.32033,1.32033,0,0,1,1.1875-.07227.88628.88628,0,0,1,.43164.82813V546.2959a2.7059,2.7059,0,0,0,.81055,1.7998,2.58658,2.58658,0,0,1,.80859,1.332v.14454q0,.6826-.89844.68359Zm3.85156-19.40381a4.32294,4.32294,0,0,1-2.98828-1.02637,3.45091,3.45091,0,0,1,0-5.148,4.3227,4.3227,0,0,1,2.98828-1.02587,4.2703,4.2703,0,0,1,2.95117,1.02587,3.45089,3.45089,0,0,1,0,5.148A4.27055,4.27055,0,0,1,966.18164,530.85205Z" transform="translate(-868.92534 -514.98583)"/><path d="M975.90234,550.25586q-.82909,0-.82812-.68359v-.14454a2.63076,2.63076,0,0,1,.70117-1.31445,2.84837,2.84837,0,0,0,.70313-1.78125V529.87988a2.891,2.891,0,0,0-.70313-1.81787,2.70463,2.70463,0,0,1-.70117-1.24219v-.144q0-.39551.791-.82812l5.4375-2.66358a1.30509,1.30509,0,0,1,1.20508-.0542.88232.88232,0,0,1,.44922.81006V546.332a2.68094,2.68094,0,0,0,.793,1.78125,2.52992,2.52992,0,0,1,.791,1.31445v.14454q0,.6826-.86329.68359Z" transform="translate(-868.92534 -514.98583)"/><path d="M989.50977,550.25586q-.82911,0-.82813-.68359v-.14454a2.63084,2.63084,0,0,1,.70117-1.31445,2.84837,2.84837,0,0,0,.70313-1.78125V529.87988a2.891,2.891,0,0,0-.70313-1.81787,2.70473,2.70473,0,0,1-.70117-1.24219v-.144q0-.39551.791-.82812l5.4375-2.66358a1.30507,1.30507,0,0,1,1.20507-.0542.8823.8823,0,0,1,.44922.81006V546.332a2.68094,2.68094,0,0,0,.793,1.78125,2.52985,2.52985,0,0,1,.791,1.31445v.14454q0,.6826-.86328.68359Z" transform="translate(-868.92534 -514.98583)"/><path d="M1014.49414,532.61572a3.17,3.17,0,0,1,2.46484,1.0083,3.64491,3.64491,0,0,1,.918,2.55567q0,3.38453-2.77148,3.38427a2.4369,2.4369,0,0,1-1.69141-.522,1.91542,1.91542,0,0,1-.666-1.16992,3.38124,3.38124,0,0,0-.37891-1.17041.92974.92974,0,0,0-.86328-.522q-1.333,0-1.332,3.45605V546.332a2.48758,2.48758,0,0,0,.95312,1.78125q.95508.8833.95508,1.31445v.14454q0,.6826-.86523.68359h-7.73828q-.86427,0-.86524-.68359v-.14454a2.6,2.6,0,0,1,.7207-1.31445,2.80642,2.80642,0,0,0,.71875-1.78125V539.168a1.81224,1.81224,0,0,0-.43164-1.22412,7.3101,7.3101,0,0,0-.86328-.86377,1.02629,1.02629,0,0,1-.43164-.792v-.1084q0-.61158.82813-1.04395l5.07617-2.376q.71777-.25122,1.00781-.03614a.9865.9865,0,0,1,.28711.82813v2.62793A4.829,4.829,0,0,1,1014.49414,532.61572Z" transform="translate(-868.92534 -514.98583)"/><path d="M1026.21289,549.73438a4.11647,4.11647,0,0,1-2.71875.88085,4.24373,4.24373,0,0,1-2.73633-.86328,3.08155,3.08155,0,0,1-1.08008-2.55664,3.03951,3.03951,0,0,1,1.08008-2.51953,4.24373,4.24373,0,0,1,2.73633-.86328,4.17158,4.17158,0,0,1,2.71875.86328,3.06091,3.06091,0,0,1,1.06055,2.51953A3.11543,3.11543,0,0,1,1026.21289,549.73438Z" transform="translate(-868.92534 -514.98583)"/><circle class="cls-1" cx="26" cy="26" r="25"/><path class="cls-2" d="M908.7419,520.20341a25,25,0,1,0-27.88056,41.50512Z" transform="translate(-868.92534 -514.98583)"/></svg>