<svg id="Layer_1" data-name="Layer 1" xmlns="http://www.w3.org/2000/svg" viewBox="0 0 1919.89 1080">
  <rect class="cls-1" width="1919" height="1080" />
  <path class="cls-2" d="M299.85.06l-1,719.88s361,195.16,729-129.72,889-182.31,891-182.31,0-407.85,0-407.85Z"
    transform="translate(0.15 -0.06)" />
  <rect class="cls-3" width="299" height="1080" />
  <rect class="cls-4" width="280" height="1080" />
  <text class="cls-5" transform="translate(125.41 88.27)">pill<tspan class="cls-6" x="65.2" y="0">r</tspan>
    <tspan x="82.26" y="0">.</tspan>
  </text>
  <circle class="cls-7" cx="84" cy="79" r="25" />
  <path class="cls-8" d="M97.67,58.28A25,25,0,0,0,69.79,99.79Z" transform="translate(0.15 -0.06)" />
  <rect class="cls-9" x="1225" y="53.08" width="420" height="44" rx="12" />
  <text class="cls-10" transform="translate(1277.52 78.85)">sea<tspan class="cls-11" x="27.77" y="0">r</tspan>
    <tspan x="34.11" y="0">ch </tspan>
    <tspan class="cls-12" x="57.31" y="0">f</tspan>
    <tspan x="63.05" y="0">or medi</tspan>
    <tspan class="cls-13" x="123.8" y="0">c</tspan>
    <tspan class="cls-14" x="132.06" y="0">a</tspan>
    <tspan class="cls-15" x="141.6" y="0">t</tspan>
    <tspan x="148.01" y="0">ion</tspan>
    <tspan class="cls-16" x="172.42" y="0">s</tspan>
    <tspan x="180.99" y="0">, hospita</tspan>
    <tspan class="cls-17" x="249.14" y="0">ls</tspan>
    <tspan class="cls-18" x="262.94" y="0">, and mo</tspan>
    <tspan class="cls-19" x="332.01" y="0">r</tspan>
    <tspan class="cls-14" x="338.34" y="0">e</tspan>
  </text>
  <circle class="cls-20" cx="1244.24" cy="73.24" r="4.81" />
  <line class="cls-20" x1="1247.3" y1="76.3" x2="1252.54" y2="81.54" />
  <text class="cls-21" transform="translate(68.91 363.77)">C<tspan class="cls-22" x="12.24" y="0">ALEN</tspan>
    <tspan class="cls-23" x="60.75" y="0">D</tspan>
    <tspan class="cls-22" x="74.34" y="0">AR</tspan>
  </text>
  <text class="cls-24" transform="translate(68.91 309.51)">MY MEDI<tspan class="cls-25" x="77.78" y="0">C</tspan>
    <tspan class="cls-26" x="90.02" y="0">A</tspan>
    <tspan x="102.22" y="0">TION</tspan>
  </text>
  <rect class="cls-4" x="390" y="186" width="279.78" height="134" rx="13" />
  <rect class="cls-4" x="744.02" y="186" width="279.78" height="134" rx="13" />
  <rect class="cls-4" x="1098.89" y="186" width="279.78" height="134" rx="13" />
  <rect class="cls-4" x="1455.3" y="186" width="278.7" height="134" rx="13" />
  <text class="cls-24" transform="translate(68.91 255.26)">MY P<tspan class="cls-6" x="43.95" y="0">R</tspan>
    <tspan x="56.36" y="0">OFILE</tspan>
  </text>
  <text class="cls-27" transform="translate(410.08 217.13)">IN 2 HOURS:</text>
  <text class="cls-10" transform="translate(409.68 251.37)">2 x <tspan class="cls-28" x="29.54" y="0">T</tspan>
    <tspan class="cls-29" x="40.54" y="0">Y</tspan>
    <tspan x="51.55" y="0">LENO</tspan>
    <tspan class="cls-30" x="98.94" y="0">L</tspan>
    <tspan x="108.07" y="0">® Ext</tspan>
    <tspan class="cls-31" x="153.63" y="0">r</tspan>
    <tspan class="cls-32" x="159.98" y="0">a </tspan>
    <tspan class="cls-33" x="0" y="21.6">S</tspan>
    <tspan x="11.03" y="21.6">t</tspan>
    <tspan class="cls-34" x="17.33" y="21.6">r</tspan>
    <tspan x="23.67" y="21.6">eng</tspan>
    <tspan class="cls-35" x="54.02" y="21.6">t</tspan>
    <tspan x="60.43" y="21.6">h </tspan>
    <tspan class="cls-36" x="75.29" y="21.6">C</tspan>
    <tspan class="cls-37" x="87.12" y="21.6">ap</tspan>
    <tspan class="cls-31" x="107.15" y="21.6">l</tspan>
    <tspan x="112.39" y="21.6">ets</tspan>
  </text>
  <text class="cls-27" transform="translate(758.64 216.24)">REMINDERS</text>
  <text class="cls-10" transform="translate(759.2 250.91)">- <tspan class="cls-38" x="12.28" y="0">c</tspan>
    <tspan x="20.54" y="0">all d</tspan>
    <tspan class="cls-39" x="55.87" y="0">r</tspan>
    <tspan x="61.94" y="0">. housefie</tspan>
    <tspan class="cls-17" x="138.89" y="0">l</tspan>
    <tspan class="cls-37" x="144.12" y="0">d at 5pm</tspan>
    <tspan x="0" y="21.6">- get </tspan>
    <tspan class="cls-34" x="43.34" y="21.6">r</tspan>
    <tspan x="49.68" y="21.6">efil</tspan>
    <tspan class="cls-40" x="74.64" y="21.6">l</tspan>
    <tspan x="79.88" y="21.6">s at 3pm</tspan>
  </text>
  <text class="cls-41" transform="translate(572.65 297.56)">&gt; SEE MORE</text>
  <text class="cls-41" transform="translate(923.8 296.77)">&gt; SEE MORE</text>
  <text class="cls-27" transform="translate(1119.07 216.01)">M<tspan class="cls-42" x="15.84" y="0">E</tspan>
    <tspan class="cls-43" x="26.6" y="0">S</tspan>
    <tspan class="cls-44" x="38.12" y="0">S</tspan>
    <tspan class="cls-23" x="49.61" y="0">A</tspan>
    <tspan x="62.96" y="0">G</tspan>
    <tspan class="cls-42" x="76.48" y="0">E</tspan>
    <tspan class="cls-43" x="87.25" y="0">S (1)</tspan>
  </text>
  <text class="cls-10" transform="translate(1119.62 250.68)">- D<tspan class="cls-39" x="25.63" y="0">r</tspan>
    <tspan x="31.7" y="0">. Housefie</tspan>
    <tspan class="cls-31" x="112.12" y="0">l</tspan>
    <tspan class="cls-32" x="117.36" y="0">d: H</tspan>
    <tspan class="cls-11" x="150.3" y="0">e</tspan>
    <tspan x="159.77" y="0">y Sal</tspan>
    <tspan class="cls-45" x="199.6" y="0">l</tspan>
    <tspan x="204.73" y="0">y! ...</tspan>
  </text>
  <text class="cls-41" transform="translate(1284.23 296.54)">&gt; SEE MORE</text>
  <text class="cls-46" transform="translate(1474.07 216.01)">C<tspan class="cls-22" x="12.24" y="0">ALEN</tspan>
    <tspan class="cls-23" x="60.75" y="0">D</tspan>
    <tspan class="cls-22" x="74.34" y="0">AR</tspan>
  </text>
  <text class="cls-10" transform="translate(1474.62 250.68)">2/14 | <tspan class="cls-39" x="51.55" y="0">C</tspan>
    <tspan class="cls-47" x="63.29" y="0">O</tspan>
    <tspan x="76.81" y="0">VID </tspan>
    <tspan class="cls-17" x="111.83" y="0">t</tspan>
    <tspan x="118.04" y="0">e</tspan>
    <tspan class="cls-31" x="127.62" y="0">s</tspan>
    <tspan class="cls-48" x="136.19" y="0">t</tspan>
    <tspan x="142.59" y="0">ing @ </tspan>
    <tspan class="cls-47" x="0" y="21.6">C</tspan>
    <tspan x="11.83" y="21.6">a</tspan>
    <tspan class="cls-40" x="21.37" y="21.6">r</tspan>
    <tspan x="27.72" y="21.6">son </tspan>
    <tspan class="cls-49" x="61.25" y="21.6">T</tspan>
    <tspan x="70.72" y="21.6">e</tspan>
    <tspan class="cls-40" x="80.3" y="21.6">s</tspan>
    <tspan class="cls-48" x="88.87" y="21.6">t</tspan>
    <tspan x="95.27" y="21.6">ing </tspan>
    <tspan class="cls-50" x="124.86" y="21.6">C</tspan>
    <tspan x="136.35" y="21.6">en</tspan>
    <tspan class="cls-31" x="156.15" y="21.6">t</tspan>
    <tspan x="162.36" y="21.6">er</tspan>
  </text>
  <text class="cls-41" transform="translate(1639.23 296.54)">&gt; SEE MORE</text>
  <rect class="cls-51" x="390.33" y="410" width="750.54" height="512" rx="13" />
  <text class="cls-52" transform="translate(429.89 473.04)">
    <tspan class="cls-53">F</tspan>
    <tspan x="19.76" y="0">ebruary 2021</tspan>
  </text>
  <line class="cls-54" x1="429.85" y1="496.49" x2="1101.35" y2="497.49" />
  <line class="cls-55" x1="450" y1="573.98" x2="1067" y2="573.98" />
  <line class="cls-55" x1="450" y1="662.83" x2="1067" y2="662.83" />
  <line class="cls-55" x1="450" y1="751.67" x2="1067" y2="751.67" />
  <line class="cls-55" x1="450" y1="840.52" x2="1067" y2="840.52" />
  <line class="cls-55" x1="536.49" y1="899" x2="536.49" y2="510" />
  <line class="cls-55" x1="625.11" y1="899" x2="625.11" y2="510" />
  <line class="cls-55" x1="713.73" y1="899" x2="713.73" y2="510" />
  <line class="cls-55" x1="802.35" y1="899" x2="802.35" y2="510" />
  <line class="cls-55" x1="890.97" y1="899" x2="890.97" y2="510" />
  <line class="cls-55" x1="979.59" y1="899" x2="979.59" y2="510" />
  <text class="cls-56" transform="translate(540.59 522.2)">1</text>
  <text class="cls-56" transform="translate(629.64 522.2)">2</text>
  <text class="cls-56" transform="translate(718.69 522.2)">3</text>
  <text class="cls-56" transform="translate(806.74 522.2)">4</text>
  <text class="cls-56" transform="translate(895.79 522.2)">5</text>
  <text class="cls-56" transform="translate(983.84 522.2)">6</text>
  <text class="cls-56" transform="translate(454.63 588.34)">7</text>
  <text class="cls-56" transform="translate(540.59 588.34)">8</text>
  <text class="cls-56" transform="translate(629.64 588.34)">9</text>
  <text class="cls-56" transform="translate(718.69 588.34)">10</text>
  <text class="cls-56" transform="translate(806.74 588.34)">11</text>
  <text class="cls-56" transform="translate(895.79 588.34)">12</text>
  <text class="cls-56" transform="translate(983.84 588.34)">13</text>
  <text class="cls-56" transform="translate(454.63 676.41)">14</text>
  <text class="cls-56" transform="translate(540.59 676.41)">15</text>
  <text class="cls-56" transform="translate(629.64 676.41)">16</text>
  <text class="cls-56" transform="translate(718.69 676.41)">17</text>
  <text class="cls-56" transform="translate(806.74 676.41)">18</text>
  <text class="cls-56" transform="translate(895.79 676.41)">19</text>
  <text class="cls-56" transform="translate(983.84 676.41)">20</text>
  <text class="cls-56" transform="translate(454.63 765.6)">21</text>
  <text class="cls-56" transform="translate(540.59 765.6)">22</text>
  <text class="cls-56" transform="translate(629.64 765.6)">23</text>
  <text class="cls-56" transform="translate(718.69 765.6)">24</text>
  <text class="cls-56" transform="translate(806.74 765.6)">25</text>
  <text class="cls-56" transform="translate(895.79 765.6)">26</text>
  <text class="cls-56" transform="translate(983.84 765.6)">27</text>
  <text class="cls-56" transform="translate(454.63 853.64)">28</text>
  <rect class="cls-3" x="1193.14" y="410.39" width="540.86" height="278.61" rx="13" />
  <line class="cls-57" x1="1221.62" y1="496.89" x2="1705.52" y2="497.89" />
  <text class="cls-58" transform="translate(1220.78 472.66)">
    <tspan class="cls-39">N</tspan>
    <tspan class="cls-17" x="26.57" y="0">o</tspan>
    <tspan class="cls-59" x="47.52" y="0">t</tspan>
    <tspan x="61.88" y="0">es</tspan>
  </text>
  <text class="cls-10" transform="translate(1220.84 537.16)">
    <tspan class="cls-17">s</tspan>
    <tspan x="8.57" y="0">ta</tspan>
    <tspan class="cls-60" x="24.41" y="0">r</tspan>
    <tspan class="cls-14" x="31.32" y="0">t </tspan>
    <tspan class="cls-15" x="42.26" y="0">t</tspan>
    <tspan class="cls-14" x="48.67" y="0">yping a n</tspan>
    <tspan class="cls-61" x="122.42" y="0">e</tspan>
    <tspan x="131.88" y="0">w n</tspan>
    <tspan class="cls-16" x="161.89" y="0">ot</tspan>
    <tspan x="178.02" y="0">e...</tspan>
    <tspan x="0" y="43.2">- 11:30 AM: mee</tspan>
    <tspan class="cls-15" x="136.04" y="43.2">t</tspan>
    <tspan x="142.45" y="43.2">ing wi</tspan>
    <tspan class="cls-62" x="191.36" y="43.2">t</tspan>
    <tspan x="197.76" y="43.2">h D</tspan>
    <tspan class="cls-39" x="225.99" y="43.2">r</tspan>
    <tspan x="232.05" y="43.2">. </tspan>
    <tspan class="cls-63" x="240.8" y="43.2">S</tspan>
    <tspan x="251.83" y="43.2">t</tspan>
    <tspan class="cls-16" x="258.13" y="43.2">r</tspan>
    <tspan x="264.49" y="43.2">andjo</tspan>
    <tspan class="cls-61" x="309" y="43.2">r</tspan>
    <tspan x="315.34" y="43.2">d</tspan>
    <tspan x="0" y="64.8">- </tspan>
    <tspan class="cls-47" x="12.28" y="64.8">C</tspan>
    <tspan x="24.1" y="64.8">all D</tspan>
    <tspan class="cls-39" x="62.3" y="64.8">r</tspan>
    <tspan class="cls-14" x="68.36" y="64.8">. Housefie</tspan>
    <tspan class="cls-17" x="148.79" y="64.8">l</tspan>
    <tspan x="154.02" y="64.8">d at 5PM</tspan>
    <tspan x="0" y="86.4">- </tspan>
    <tspan class="cls-45" x="12.28" y="86.4">R</tspan>
    <tspan x="24.12" y="86.4">efil</tspan>
    <tspan class="cls-17" x="49.09" y="86.4">l</tspan>
    <tspan x="54.32" y="86.4">s @ </tspan>
    <tspan class="cls-64" x="89.3" y="86.4">C</tspan>
    <tspan class="cls-65" x="101.12" y="86.4">V</tspan>
    <tspan x="113.33" y="86.4">S at 3PM</tspan>
  </text>
  <text class="cls-66" transform="translate(1573.4 663.24)">&gt; SEE ALL N<tspan class="cls-67" x="91.36" y="0">O
    </tspan>
    <tspan x="102.93" y="0">T</tspan>
    <tspan class="cls-68" x="112.56" y="0">E</tspan>
    <tspan x="121.73" y="0">S</tspan>
  </text>
  <rect class="cls-3" x="1193.57" y="704.98" width="540.86" height="217.02" rx="13" />
  <line class="cls-57" x1="1217.21" y1="784.54" x2="1701.11" y2="785.54" />
  <text class="cls-58" transform="translate(1216.36 760.31)">
    <tspan class="cls-69">M</tspan>
    <tspan x="32.15" y="0">y devices</tspan>
  </text>
  <text class="cls-10" transform="translate(1225.2 827.85)">o Sal<tspan class="cls-45" x="40.59" y="0">l</tspan>
    <tspan class="cls-70" x="45.72" y="0">y</tspan>
    <tspan class="cls-71" x="55.04" y="0">’</tspan>
    <tspan class="cls-14" x="58.63" y="0">s Pill Dispenser</tspan>
  </text>
  <text class="cls-72" transform="translate(68.91 201)">D<tspan class="cls-73" x="13.59" y="0">A</tspan>
    <tspan class="cls-43" x="27.05" y="0">SHB</tspan>
    <tspan x="65.34" y="0">O</tspan>
    <tspan class="cls-22" x="79.38" y="0">ARD</tspan>
  </text>
  <rect class="cls-51" x="281" y="183" width="58" height="26" rx="3" />
</svg>