<svg width="24" height="24" viewBox="0 0 24 24" fill="none" xmlns="http://www.w3.org/2000/svg">
<path d="M12 21C10.7369 19.9227 9.56619 18.7416 8.5 17.4691C6.9 15.5581 5 12.712 5 10.0001C4.99858 7.1676 6.70425 4.61344 9.32107 3.52945C11.9379 2.44545 14.9501 3.04529 16.952 5.04905C18.2685 6.35966 19.0059 8.14244 19 10.0001C19 12.712 17.1 15.5581 15.5 17.4691C14.4338 18.7416 13.2631 19.9227 12 21ZM12 7.00005C10.9282 7.00005 9.93782 7.57185 9.40193 8.50005C8.86603 9.42825 8.86603 10.5718 9.40193 11.5001C9.93782 12.4283 10.9282 13.0001 12 13.0001C13.6569 13.0001 15 11.6569 15 10.0001C15 8.3432 13.6569 7.00005 12 7.00005Z" fill="#2E3A59"/>
</svg>
