<svg xmlns="http://www.w3.org/2000/svg" viewBox="0 0 790.17 511.92">
  <g id="Layer_2" data-name="Layer 2">
    <g id="Layer_1-2" data-name="Layer 1">
      <g>
        <path class="cls-1"
          d="M4.34,33.24c-.7,0-1.06-.28-1.06-.84v-.17c0-.38.35-.91,1-1.58a6.67,6.67,0,0,0,1.51-2.2L14,7.19a2.46,2.46,0,0,0-.65-2.37,5,5,0,0,1-1.06-1.76V2.89c0-.56.34-.84,1-.84h10.1c.68,0,1,.28,1,.84v.17a1.31,1.31,0,0,1-.37.77c-.25.31-.51.6-.77.88a2.85,2.85,0,0,0-.61,1,1.69,1.69,0,0,0,.08,1.3L32,28.45a6.14,6.14,0,0,0,1.51,2.17c.69.66,1,1.2,1,1.61v.17q0,.84-1,.84H22.26c-.71,0-1.06-.28-1.06-.84v-.17a1.49,1.49,0,0,1,.64-1,6.56,6.56,0,0,0,1.1-1.2,1.62,1.62,0,0,0,.15-1.54l-1-2.72H11l-1,2.72A1.62,1.62,0,0,0,10.16,30a5.92,5.92,0,0,0,1.1,1.2,1.51,1.51,0,0,1,.63,1v.17q0,.84-1.05.84Zm7.82-10.81H21L16.55,10.27Z" />
        <path class="cls-1"
          d="M57,28.45a3.39,3.39,0,0,0,.88,2.17,3.21,3.21,0,0,1,.87,1.61v.17c0,.56-.33.84-1,.84H51.46a1,1,0,0,1-1.14-1.1v-.4A7.51,7.51,0,0,1,45,33.68a10.24,10.24,0,0,1-7.31-2.92,10.66,10.66,0,0,1-3-8.06,10.74,10.74,0,0,1,3.07-7.89A10,10,0,0,1,45,11.72,8,8,0,0,1,49.53,13V7.1A2.18,2.18,0,0,0,49,5.59a9.83,9.83,0,0,0-1.16-1.1,1.29,1.29,0,0,1-.6-1V3.37c0-.55.34-.94,1-1.14L55.07.17C56.35-.24,57,.11,57,1.22ZM46.72,31.52a2.36,2.36,0,0,0,2-1,4.25,4.25,0,0,0,.81-2.73V19.36a6.35,6.35,0,0,0-1.21-3.8,3.38,3.38,0,0,0-2.74-1.69q-3.26,0-3.47,5.4a22.91,22.91,0,0,0,.37,4.79,19.59,19.59,0,0,0,1.58,5.07C44.81,30.7,45.7,31.5,46.72,31.52Z" />
        <path class="cls-1"
          d="M82.91,28.45a3.39,3.39,0,0,0,.88,2.17,3.25,3.25,0,0,1,.88,1.61v.17c0,.56-.34.84-1,.84H77.38c-.77,0-1.15-.37-1.15-1.1v-.4a7.5,7.5,0,0,1-5.35,1.94,10.26,10.26,0,0,1-7.32-2.92,10.66,10.66,0,0,1-3.05-8.06,10.75,10.75,0,0,1,3.08-7.89,10,10,0,0,1,7.33-3.09A8,8,0,0,1,75.44,13V7.1a2.18,2.18,0,0,0-.57-1.51,9.83,9.83,0,0,0-1.16-1.1,1.27,1.27,0,0,1-.59-1V3.37c0-.55.33-.94,1-1.14L81,.17c1.29-.41,1.93-.06,1.93,1.05ZM72.63,31.52a2.36,2.36,0,0,0,2-1,4.25,4.25,0,0,0,.81-2.73V19.36a6.41,6.41,0,0,0-1.2-3.8,3.4,3.4,0,0,0-2.75-1.69c-2.17,0-3.32,1.8-3.47,5.4a23.61,23.61,0,0,0,.37,4.79A19.23,19.23,0,0,0,70,29.13C70.72,30.7,71.61,31.5,72.63,31.52Z" />
        <path class="cls-1"
          d="M119,28.45a4.39,4.39,0,0,0,.84,2.17,3.44,3.44,0,0,1,.74,1.65v.18c0,.55-.35.83-1,.83h-8.78c-.71,0-1.06-.28-1.06-.83v-.18a3.31,3.31,0,0,1,.84-1.62,3.22,3.22,0,0,0,.74-2.2l-.44-7.86A12.62,12.62,0,0,0,110,16a2.28,2.28,0,0,0-2.18-1.36,2.38,2.38,0,0,0-2.13,1.14,5.81,5.81,0,0,0-.72,3.12v9.57a3.38,3.38,0,0,0,1,2.2,3.13,3.13,0,0,1,1,1.62v.18c0,.55-.35.83-1,.83H96.35c-.7,0-1-.28-1-.83v-.18a3.16,3.16,0,0,1,1-1.62,3.35,3.35,0,0,0,1-2.2V19.8a2.24,2.24,0,0,0-.57-1.56,8.51,8.51,0,0,0-1.17-1.1,1.3,1.3,0,0,1-.59-1V16c0-.38.35-.75,1-1.1l6.15-3c.56-.23,1-.24,1.25,0a1.29,1.29,0,0,1,.42,1.08V15c1.23-2.2,3.33-3.29,6.28-3.29a8.12,8.12,0,0,1,5.67,2.15q2.37,2.15,2.72,7Z" />
        <path class="cls-1"
          d="M140.53,26.3a1,1,0,0,1,1.08-.29.79.79,0,0,1,.55.9,5.3,5.3,0,0,1-.59,2.11A9.36,9.36,0,0,1,140,31.19,7.54,7.54,0,0,1,137.22,33a10.85,10.85,0,0,1-15.13-10.41,10.25,10.25,0,0,1,3.16-7.79,10.93,10.93,0,0,1,7.73-3,10.3,10.3,0,0,1,6.32,1.71,5.48,5.48,0,0,1,2.42,4.65,5.31,5.31,0,0,1-2,4.05,9.63,9.63,0,0,1-5.07,2.24,20.28,20.28,0,0,1-4.39.3,5.92,5.92,0,0,0,5.53,3.56Q139.08,28.23,140.53,26.3ZM132.06,14a2.46,2.46,0,0,0-2.18,1.37,6.86,6.86,0,0,0-.81,3.55,13.7,13.7,0,0,0,.4,3.39,13.68,13.68,0,0,0,2.19-.09c2-.35,3-1.94,3-4.75a4.41,4.41,0,0,0-.77-2.46A2.17,2.17,0,0,0,132.06,14Z" />
        <path class="cls-1"
          d="M173.08,11.72a4.09,4.09,0,0,1,3.49,1.71,8.55,8.55,0,0,1,1.25,5.05q0,7-3.12,11.09a9.69,9.69,0,0,1-8.08,4.11,6.53,6.53,0,0,1-6.19-3.43,8,8,0,0,1-7,3.43,8.61,8.61,0,0,1-2.72-.42,8.35,8.35,0,0,1-2.53-1.41,6.5,6.5,0,0,1-2-3,13.65,13.65,0,0,1-.73-4.74V17.69a3.4,3.4,0,0,0-.88-2.2,3.22,3.22,0,0,1-.88-1.49v-.18a1,1,0,0,1,.27-.65,1,1,0,0,1,.7-.36l6.54-.87c1.41-.18,2.11.24,2.11,1.27l-.17,14.14a4.48,4.48,0,0,0,.52,2.48,1.75,1.75,0,0,0,1.54,1c1.26,0,2.23-.9,2.92-2.68a16.07,16.07,0,0,0,1-5.84V17.69a3.44,3.44,0,0,0-.87-2.2A3.13,3.13,0,0,1,157.4,14v-.18c0-.58.33-.92,1-1l6-.92c1.37-.23,2.06.21,2.06,1.32l-.13,14c-.06,2.4.63,3.6,2.06,3.6s2.72-1,3.87-2.84A10.94,10.94,0,0,0,174,22.21a3.64,3.64,0,0,0-.68-2.17,6,6,0,0,0-1.47-1.47,5.49,5.49,0,0,1-1.47-1.52,3.84,3.84,0,0,1-.68-2.26,2.87,2.87,0,0,1,.92-2.22A3.46,3.46,0,0,1,173.08,11.72Z" />
        <path class="cls-1"
          d="M210.94,28.45a3.43,3.43,0,0,0,.87,2.17,3.17,3.17,0,0,1,.88,1.61v.17c0,.56-.33.84-1,.84H205.4a1,1,0,0,1-1.14-1.1v-.4a7.53,7.53,0,0,1-5.36,1.94,10.22,10.22,0,0,1-7.31-2.92,10.62,10.62,0,0,1-3.05-8.06,10.74,10.74,0,0,1,3.07-7.89A10,10,0,0,1,199,11.72,8,8,0,0,1,203.47,13V7.1a2.18,2.18,0,0,0-.57-1.51,9.17,9.17,0,0,0-1.17-1.1,1.3,1.3,0,0,1-.59-1V3.37c0-.55.34-.94,1-1.14L209,.17c1.29-.41,1.94-.06,1.94,1.05Zm-10.28,3.07a2.36,2.36,0,0,0,2-1,4.25,4.25,0,0,0,.81-2.73V19.36a6.35,6.35,0,0,0-1.21-3.8,3.38,3.38,0,0,0-2.74-1.69q-3.26,0-3.47,5.4a22.91,22.91,0,0,0,.37,4.79A19.59,19.59,0,0,0,198,29.13C198.75,30.7,199.63,31.5,200.66,31.52Z" />
        <path class="cls-1"
          d="M232.9,26.3A1,1,0,0,1,234,26a.78.78,0,0,1,.55.9,5.3,5.3,0,0,1-.59,2.11,9.36,9.36,0,0,1-1.56,2.17A7.38,7.38,0,0,1,229.58,33a10.86,10.86,0,0,1-15.13-10.41,10.25,10.25,0,0,1,3.16-7.79,11,11,0,0,1,7.73-3,10.31,10.31,0,0,1,6.33,1.71,5.47,5.47,0,0,1,2.41,4.65,5.33,5.33,0,0,1-2,4.05,9.7,9.7,0,0,1-5.08,2.24,20.23,20.23,0,0,1-4.39.3,5.93,5.93,0,0,0,5.54,3.56Q231.44,28.23,232.9,26.3ZM224.42,14a2.45,2.45,0,0,0-2.17,1.37,6.76,6.76,0,0,0-.82,3.55,13.7,13.7,0,0,0,.4,3.39,13.63,13.63,0,0,0,2.19-.09c2-.35,3-1.94,3-4.75a4.41,4.41,0,0,0-.77-2.46A2.17,2.17,0,0,0,224.42,14Z" />
        <path class="cls-1"
          d="M246.07,33.68a9.72,9.72,0,0,1-2.92-.42,8.36,8.36,0,0,1-2.61-1.41,6.39,6.39,0,0,1-2-3,13.89,13.89,0,0,1-.73-4.74V17.69a3.44,3.44,0,0,0-.87-2.2,3.13,3.13,0,0,1-.88-1.49v-.18a1,1,0,0,1,.26-.65,1,1,0,0,1,.7-.36l6.55-.87c1.4-.18,2.11.11,2.11.87l-.18,13.62a6.53,6.53,0,0,0,.55,3.32,2.13,2.13,0,0,0,1.87,1q2.54.09,4.52-2.79a10.32,10.32,0,0,0,2-5.91,3.69,3.69,0,0,0-.66-2.17,5.18,5.18,0,0,0-1.47-1.45A5.08,5.08,0,0,1,250.81,17a3.84,3.84,0,0,1-.65-2.22,2.86,2.86,0,0,1,.9-2.17,3.45,3.45,0,0,1,2.48-.86A4.14,4.14,0,0,1,257,13.45a8.24,8.24,0,0,1,1.29,5q0,6.76-3.4,11A10.81,10.81,0,0,1,246.07,33.68Z" />
        <path class="cls-1"
          d="M261.66,33.24q-1.05,0-1.05-.84v-.17a3.24,3.24,0,0,1,.88-1.63,3.54,3.54,0,0,0,.88-2.19V20.06a3.53,3.53,0,0,0-.88-2.22,3.24,3.24,0,0,1-.88-1.47V16.2c0-.35.33-.69,1-1l6.63-3.25a1.58,1.58,0,0,1,1.45-.09,1.08,1.08,0,0,1,.53,1V28.41a3.29,3.29,0,0,0,1,2.19,3.19,3.19,0,0,1,1,1.63v.17c0,.56-.36.84-1.09.84Zm4.7-23.68a5.23,5.23,0,0,1-3.64-1.25,4,4,0,0,1-1.41-3.14A4,4,0,0,1,262.72,2,5.28,5.28,0,0,1,266.36.78,5.21,5.21,0,0,1,270,2a4,4,0,0,1,1.41,3.14A4,4,0,0,1,270,8.31,5.16,5.16,0,0,1,266.36,9.56Z" />
        <path class="cls-1"
          d="M285.25,33.68A11,11,0,0,1,277,30.4a10.71,10.71,0,0,1-3.2-7.75,10.2,10.2,0,0,1,3.25-7.93,12.5,12.5,0,0,1,14.54-1.23,5.5,5.5,0,0,1,2.72,4.73,2.48,2.48,0,0,1-.77,1.84,3.25,3.25,0,0,1-2.44.7,3.79,3.79,0,0,1-2.57-1.18A7.07,7.07,0,0,1,287,17.21a8.48,8.48,0,0,0-1.31-2.31,2.41,2.41,0,0,0-1.89-1,2.64,2.64,0,0,0-2.22,1.45,6.56,6.56,0,0,0-.86,3.47,11.16,11.16,0,0,0,2,6.89,6.18,6.18,0,0,0,5.2,2.59,5.89,5.89,0,0,0,4.88-2.54,1,1,0,0,1,1.05-.38.79.79,0,0,1,.62.86,7.18,7.18,0,0,1-2.51,5.27A9.56,9.56,0,0,1,285.25,33.68Z" />
        <path class="cls-1"
          d="M314.72,26.3a1,1,0,0,1,1.07-.29.78.78,0,0,1,.55.9,5.14,5.14,0,0,1-.59,2.11,9.36,9.36,0,0,1-1.56,2.17A7.38,7.38,0,0,1,311.4,33a10.86,10.86,0,0,1-15.13-10.41,10.28,10.28,0,0,1,3.16-7.79,11,11,0,0,1,7.73-3,10.31,10.31,0,0,1,6.33,1.71,5.47,5.47,0,0,1,2.41,4.65A5.33,5.33,0,0,1,314,22.13a9.67,9.67,0,0,1-5.07,2.24,20.37,20.37,0,0,1-4.4.3A5.93,5.93,0,0,0,310,28.23Q313.26,28.23,314.72,26.3ZM306.24,14a2.45,2.45,0,0,0-2.17,1.37,6.76,6.76,0,0,0-.82,3.55,14.19,14.19,0,0,0,.4,3.39,13.81,13.81,0,0,0,2.2-.09c2-.35,3-1.94,3-4.75a4.33,4.33,0,0,0-.77-2.46A2.17,2.17,0,0,0,306.24,14Z" />
      </g>
      <rect class="cls-1" y="73.94" width="251.32" height="437.98" rx="7" />
      <rect class="cls-2" x="17.43" y="88.42" width="216.81" height="406.42" rx="7" />
      <rect class="cls-1" x="25.7" y="96.88" width="64.52" height="64.9" rx="3" />
      <circle class="cls-2" cx="44.66" cy="113.72" r="11.72" />
      <circle class="cls-2" cx="44.66" cy="144.99" r="11.72" />
      <circle class="cls-2" cx="71.24" cy="129.36" r="11.72" />
      <g>
        <path
          d="M288.89,93.52a6.26,6.26,0,0,1-3.31-.78A2.18,2.18,0,0,1,284.3,91a1,1,0,0,1,.3-.75,1.18,1.18,0,0,1,.8-.26,1,1,0,0,1,.74.29,2.21,2.21,0,0,1,.47.7,7,7,0,0,0,.41.82,1.86,1.86,0,0,0,.7.69,2.2,2.2,0,0,0,1.17.29,2.31,2.31,0,0,0,1.46-.44,1.48,1.48,0,0,0,.56-1.25,1.44,1.44,0,0,0-.66-1.26,4.6,4.6,0,0,0-1.59-.67c-.62-.15-1.25-.32-1.88-.51a3.45,3.45,0,0,1-1.6-1,2.8,2.8,0,0,1-.66-1.94,2.65,2.65,0,0,1,1.21-2.23,5.06,5.06,0,0,1,3.1-.89,5.71,5.71,0,0,1,3.17.8,2.23,2.23,0,0,1,1.22,1.81.88.88,0,0,1-.29.68,1,1,0,0,1-.72.27.91.91,0,0,1-.69-.29,2.25,2.25,0,0,1-.46-.69c-.13-.27-.26-.54-.4-.81a1.81,1.81,0,0,0-1.7-1,1.88,1.88,0,0,0-1.32.48,1.58,1.58,0,0,0-.53,1.21,1.46,1.46,0,0,0,.66,1.27,4.62,4.62,0,0,0,1.59.69c.63.16,1.25.33,1.88.52a3.54,3.54,0,0,1,1.61,1,2.8,2.8,0,0,1,.65,1.93,2.58,2.58,0,0,1-1.26,2.19A5.8,5.8,0,0,1,288.89,93.52Z" />
        <path
          d="M300.2,93.54a5.48,5.48,0,0,1-4-1.62A5.28,5.28,0,0,1,294.56,88a5.13,5.13,0,0,1,1.6-3.93,5.64,5.64,0,0,1,3.93-1.51,5.19,5.19,0,0,1,3.11.87,2.5,2.5,0,0,1,1.31,2,1,1,0,0,1-.28.69,1.06,1.06,0,0,1-.84.25,1.29,1.29,0,0,1-.95-.5,4.89,4.89,0,0,1-.68-1,3.24,3.24,0,0,0-.8-1,2,2,0,0,0-1.29-.46,2.15,2.15,0,0,0-1.82,1,4,4,0,0,0-.7,2.41,5.62,5.62,0,0,0,1.07,3.59,3.47,3.47,0,0,0,2.84,1.36,3,3,0,0,0,2.83-1.81.4.4,0,0,1,.46-.19q.28.06.24.39a3.77,3.77,0,0,1-1.32,2.42A4.53,4.53,0,0,1,300.2,93.54Z" />
        <path
          d="M317.2,83.59c0,.09-.08.19-.22.32a2.7,2.7,0,0,0-.44.49,1.21,1.21,0,0,0-.22.73V91.5a1.17,1.17,0,0,0,.42.87c.28.27.41.46.41.57V93c0,.21-.12.31-.37.31H314.5a.37.37,0,0,1-.42-.42V92a3.64,3.64,0,0,1-3.16,1.52A4.9,4.9,0,0,1,307.31,92a5.39,5.39,0,0,1-1.51-4,5.45,5.45,0,0,1,1.48-3.93A4.9,4.9,0,0,1,311,82.56a4,4,0,0,1,3.12,1.38v-.81a.45.45,0,0,1,.22-.42.77.77,0,0,1,.59,0l1.91.39c.27.08.4.23.4.46Zm-5.69,9.11a2.19,2.19,0,0,0,1.61-.74,2.9,2.9,0,0,0,.72-2.09V86.36a3,3,0,0,0-.84-2,2.51,2.51,0,0,0-1.95-.94,2.37,2.37,0,0,0-2,1,4.69,4.69,0,0,0-.77,2.74,7.92,7.92,0,0,0,.85,3.93A2.69,2.69,0,0,0,311.51,92.7Z" />
        <path
          d="M329.69,91.47a1.29,1.29,0,0,0,.41.87c.26.26.38.45.38.58V93q0,.33-.48.33h-3.2c-.33,0-.49-.11-.49-.33v-.09c0-.13.14-.32.41-.58a1.08,1.08,0,0,0,.38-.87l-.22-4.23c-.1-2.42-.87-3.63-2.3-3.63a2.06,2.06,0,0,0-1.67.76,2.91,2.91,0,0,0-.64,2V91.5a1.09,1.09,0,0,0,.45.85q.45.38.45.57V93q0,.33-.48.33h-3.41c-.3,0-.46-.11-.46-.33v-.09c0-.13.15-.32.44-.57a1.08,1.08,0,0,0,.44-.85V85.61a.94.94,0,0,0-.25-.68,3.08,3.08,0,0,0-.49-.43.45.45,0,0,1-.25-.36v-.07c0-.14.14-.27.4-.39l2.13-1c.23-.11.41-.12.52,0a.5.5,0,0,1,.16.43v1.43a3.37,3.37,0,0,1,1.34-1.41,4,4,0,0,1,2-.5,3.88,3.88,0,0,1,2.85,1.16,5.4,5.4,0,0,1,1.32,3.6Z" />
        <path
          d="M340.34,93.54a2.91,2.91,0,0,1-2.25-.91,3.82,3.82,0,0,1-.82-2.65V83.85H336a.33.33,0,0,1-.38-.37v-.31a.34.34,0,0,1,.38-.39h.68a1.72,1.72,0,0,0,1.35-.57,2.86,2.86,0,0,0,.65-1.56c0-.32.19-.49.44-.49h.33c.27,0,.41.17.41.49l0,2.13h2.76a.38.38,0,0,1,.29.11.39.39,0,0,1,.11.28v.31c0,.25-.13.37-.4.37h-2.76V90a1.83,1.83,0,0,0,.35,1.2,1.12,1.12,0,0,0,.9.43,1.4,1.4,0,0,0,1.56-1.14.36.36,0,0,1,.26-.22.39.39,0,0,1,.32,0,.32.32,0,0,1,.14.29,2.89,2.89,0,0,1-.84,2.06A3,3,0,0,1,340.34,93.54Z" />
        <path
          d="M355.14,91.45a1.43,1.43,0,0,0,.42.87c.25.26.38.46.38.6V93c0,.21-.16.31-.47.31h-3.22c-.31,0-.46-.1-.46-.31v-.09c0-.13.13-.32.4-.58a1.12,1.12,0,0,0,.39-.87l-.22-4.34c-.11-2.35-.87-3.52-2.31-3.52a2.07,2.07,0,0,0-1.67.76,3,3,0,0,0-.64,2V91.5a1.11,1.11,0,0,0,.45.84c.3.26.45.45.45.58V93q0,.33-.48.33h-3.4c-.31,0-.46-.11-.46-.33v-.07a.5.5,0,0,1,.22-.38c.14-.13.29-.27.44-.43a.91.91,0,0,0,.22-.61V79.83a.92.92,0,0,0-.24-.65,2.29,2.29,0,0,0-.46-.43.47.47,0,0,1-.23-.34v-.07c0-.19.13-.34.38-.46l2.35-1c.46-.21.7-.09.7.35l0,6.83a3.53,3.53,0,0,1,3.07-1.47,3.94,3.94,0,0,1,2.86,1.14,5.14,5.14,0,0,1,1.29,3.49Z" />
        <path
          d="M366.1,90.09a.42.42,0,0,1,.45-.18.34.34,0,0,1,.26.4,3.76,3.76,0,0,1-1.3,2.21,4.27,4.27,0,0,1-3,1A5.29,5.29,0,0,1,358.57,92a5.49,5.49,0,0,1-1.51-4,5.18,5.18,0,0,1,5.31-5.4,4.79,4.79,0,0,1,2.91.77,2.65,2.65,0,0,1,.15,4.23,5.7,5.7,0,0,1-2.56,1.19,10.4,10.4,0,0,1-3.18.11A4.35,4.35,0,0,0,361,90.94a3.35,3.35,0,0,0,2.17.75,3.45,3.45,0,0,0,1.81-.45A2.79,2.79,0,0,0,366.1,90.09ZM362,83.44a2.23,2.23,0,0,0-1.87,1,4,4,0,0,0-.72,2.43,8.74,8.74,0,0,0,.06,1,10.16,10.16,0,0,0,2.92-.13,2.07,2.07,0,0,0,1.17-.67,2.31,2.31,0,0,0,.39-1.55,2.25,2.25,0,0,0-.56-1.49A1.76,1.76,0,0,0,362,83.44Z" />
        <path
          d="M383.1,91.25a1.64,1.64,0,0,0,.18.86.57.57,0,0,0,.38.32,1,1,0,0,1,.38.13.36.36,0,0,1,.18.34c0,.37-.55.55-1.65.55a2.06,2.06,0,0,1-1.36-.37,1.54,1.54,0,0,1-.42-1.25,3.46,3.46,0,0,1-3.29,1.71,3.8,3.8,0,0,1-3-1.23,5.1,5.1,0,0,1-1.12-3.56V85A1.25,1.25,0,0,0,373,84c-.28-.27-.42-.46-.42-.56v-.07c0-.22.13-.35.4-.39l2.3-.37c.5-.08.75,0,.75.32l0,6c0,2.33.74,3.49,2.2,3.49a2.08,2.08,0,0,0,1.68-.82,3.26,3.26,0,0,0,.67-2.14V85a1.22,1.22,0,0,0-.43-.91c-.28-.27-.43-.46-.43-.56v-.07c0-.22.13-.35.38-.39l2.35-.37c.47-.08.7,0,.7.32Z" />
        <path
          d="M396.36,91.47a1.29,1.29,0,0,0,.41.87c.26.26.38.45.38.58V93q0,.33-.48.33h-3.2c-.33,0-.49-.11-.49-.33v-.09c0-.13.14-.32.41-.58a1.08,1.08,0,0,0,.38-.87l-.22-4.23c-.1-2.42-.87-3.63-2.3-3.63a2.06,2.06,0,0,0-1.67.76,2.91,2.91,0,0,0-.64,2V91.5a1.09,1.09,0,0,0,.45.85q.45.38.45.57V93q0,.33-.48.33H386c-.3,0-.46-.11-.46-.33v-.09c0-.13.15-.32.44-.57a1.08,1.08,0,0,0,.44-.85V85.61a.94.94,0,0,0-.25-.68,3.08,3.08,0,0,0-.49-.43.45.45,0,0,1-.25-.36v-.07c0-.14.14-.27.4-.39l2.13-1c.23-.11.41-.12.52,0a.5.5,0,0,1,.16.43v1.43a3.37,3.37,0,0,1,1.34-1.41,4,4,0,0,1,2-.5,3.88,3.88,0,0,1,2.85,1.16,5.4,5.4,0,0,1,1.32,3.6Z" />
        <path
          d="M398.89,93.32c-.31,0-.46-.11-.46-.33V92.9c0-.13.13-.32.4-.57a1.14,1.14,0,0,0,.41-.86V85.72a1.36,1.36,0,0,0-.41-.94c-.27-.3-.4-.49-.4-.58v-.06c0-.12.13-.25.39-.4l2.2-1.09a.64.64,0,0,1,.58,0,.44.44,0,0,1,.21.41v8.45a1.09,1.09,0,0,0,.45.86q.45.38.45.57V93q0,.33-.48.33ZM400.51,81a1.84,1.84,0,0,1-1.31-.46,1.51,1.51,0,0,1-.51-1.18,1.53,1.53,0,0,1,.51-1.19,1.84,1.84,0,0,1,1.31-.46,1.8,1.8,0,0,1,1.29.46,1.55,1.55,0,0,1,.49,1.19,1.53,1.53,0,0,1-.49,1.18A1.8,1.8,0,0,1,400.51,81Z" />
        <path
          d="M415.51,83.59c0,.09-.07.19-.22.32a3.13,3.13,0,0,0-.44.49,1.28,1.28,0,0,0-.22.73V96.37a1.17,1.17,0,0,0,.42.87c.28.25.42.45.42.58v.07c0,.2-.16.3-.46.3h-3.3c-.3,0-.46-.1-.46-.3v-.07c0-.13.15-.33.45-.58a1.14,1.14,0,0,0,.45-.87V92.31a3.77,3.77,0,0,1-3,1.23A4.9,4.9,0,0,1,405.58,92a5.39,5.39,0,0,1-1.51-4,5.45,5.45,0,0,1,1.48-3.93,4.9,4.9,0,0,1,3.68-1.54,4,4,0,0,1,3.16,1.38v-.81a.47.47,0,0,1,.22-.42.79.79,0,0,1,.6,0l1.91.39a.46.46,0,0,1,.39.46Zm-5.73,9.11a2.28,2.28,0,0,0,1.64-.74,2.86,2.86,0,0,0,.73-2.09V86.36a2.93,2.93,0,0,0-.85-2,2.61,2.61,0,0,0-2-.94,2.37,2.37,0,0,0-2,1,4.69,4.69,0,0,0-.77,2.74,7.92,7.92,0,0,0,.85,3.93A2.69,2.69,0,0,0,409.78,92.7Z" />
        <path
          d="M427.15,91.25a1.64,1.64,0,0,0,.18.86.57.57,0,0,0,.38.32,1.06,1.06,0,0,1,.39.13.37.37,0,0,1,.17.34c0,.37-.55.55-1.65.55a2.08,2.08,0,0,1-1.36-.37,1.51,1.51,0,0,1-.41-1.25,3.49,3.49,0,0,1-3.3,1.71,3.8,3.8,0,0,1-3-1.23,5.1,5.1,0,0,1-1.12-3.56V85a1.25,1.25,0,0,0-.42-.91c-.28-.27-.42-.46-.42-.56v-.07c0-.22.13-.35.4-.39l2.3-.37c.5-.08.75,0,.75.32l0,6c0,2.33.73,3.49,2.19,3.49a2.06,2.06,0,0,0,1.68-.82,3.26,3.26,0,0,0,.67-2.14V85a1.22,1.22,0,0,0-.43-.91c-.28-.27-.42-.46-.42-.56v-.07c0-.22.12-.35.37-.39l2.35-.37c.47-.08.7,0,.7.32Z" />
        <path
          d="M438.44,90.09a.42.42,0,0,1,.45-.18.33.33,0,0,1,.25.4,3.79,3.79,0,0,1-1.29,2.21,4.29,4.29,0,0,1-3,1A5.27,5.27,0,0,1,430.91,92a5.5,5.5,0,0,1-1.52-4,5.2,5.2,0,0,1,5.32-5.4,4.83,4.83,0,0,1,2.91.77,2.65,2.65,0,0,1,.15,4.23,5.75,5.75,0,0,1-2.56,1.19,10.4,10.4,0,0,1-3.18.11,4.21,4.21,0,0,0,1.34,2.08,3.33,3.33,0,0,0,2.17.75,3.44,3.44,0,0,0,1.8-.45A2.82,2.82,0,0,0,438.44,90.09Zm-4.11-6.65a2.21,2.21,0,0,0-1.86,1,3.92,3.92,0,0,0-.73,2.43,7,7,0,0,0,.07,1,10.17,10.17,0,0,0,2.92-.13,2.08,2.08,0,0,0,1.16-.67,2.65,2.65,0,0,0-.16-3A1.78,1.78,0,0,0,434.33,83.44Z" />
        <path
          d="M462,94.31a.36.36,0,0,1,.4.15.58.58,0,0,1,0,.53A3.55,3.55,0,0,1,461,96.35a4.46,4.46,0,0,1-2.47.64A8,8,0,0,1,452,93.47a7.22,7.22,0,0,1-4.92-2.62,8.09,8.09,0,0,1-1.89-5.33,8,8,0,0,1,2.15-5.75,7.28,7.28,0,0,1,5.53-2.26,7,7,0,0,1,5.5,2.38,8.27,8.27,0,0,1,2.15,5.72,8,8,0,0,1-1.88,5.31,7.14,7.14,0,0,1-4.76,2.57,7.21,7.21,0,0,0,4.77,1.65A6.2,6.2,0,0,0,460,95a9,9,0,0,0,1.27-.41C461.69,94.41,461.91,94.32,462,94.31ZM447.77,83.55a11.24,11.24,0,0,0,1.65,6.25,4.9,4.9,0,0,0,4.24,2.55,3.8,3.8,0,0,0,3-1.4,5.13,5.13,0,0,0,1.18-3.41,11.22,11.22,0,0,0-1.67-6.29,5,5,0,0,0-4.28-2.56,3.75,3.75,0,0,0-3,1.35A5.25,5.25,0,0,0,447.77,83.55Z" />
        <path
          d="M474.58,91.61a1.09,1.09,0,0,0,.47.75c.29.24.43.44.43.58V93c0,.21-.15.31-.46.31h-3.36c-.3,0-.46-.1-.46-.31v-.07a.85.85,0,0,1,.34-.52.92.92,0,0,0,.34-.7,5.92,5.92,0,0,0-.72-2.72,4,4,0,0,0-1.91-1.76c-.32,0-.59,0-.79,0h-2.62V91.5a1.11,1.11,0,0,0,.45.86c.3.26.45.45.45.58V93c0,.21-.16.31-.48.31h-3.45c-.3,0-.46-.1-.46-.31v-.07c0-.13.14-.32.41-.58a1.15,1.15,0,0,0,.41-.86v-12a1.19,1.19,0,0,0-.41-.87c-.27-.25-.41-.45-.41-.58V78c0-.2.16-.3.46-.3h5A8.38,8.38,0,0,1,472.6,79a4.15,4.15,0,0,1,1.83,3.63,3.92,3.92,0,0,1-.76,2.31,5.24,5.24,0,0,1-2.09,1.71,5.55,5.55,0,0,1,2.14,2.08A6.21,6.21,0,0,1,474.58,91.61Zm-6.45-5.41a3.75,3.75,0,0,0,2.57-.86,3.08,3.08,0,0,0,1-2.41,3.86,3.86,0,0,0-1.18-3,4.16,4.16,0,0,0-2.88-1.07h-1.1q-.66,0-.66.87v5.19q0,1.29,1.08,1.29Z" />
        <path
          d="M486.73,93.54a5.48,5.48,0,0,1-4-1.62A5.29,5.29,0,0,1,481.08,88a5.13,5.13,0,0,1,1.61-3.93,5.64,5.64,0,0,1,3.93-1.51,5.21,5.21,0,0,1,3.11.87,2.48,2.48,0,0,1,1.3,2,1,1,0,0,1-.27.69,1.1,1.1,0,0,1-.85.25,1.29,1.29,0,0,1-.94-.5,4.54,4.54,0,0,1-.68-1,3.39,3.39,0,0,0-.8-1,2,2,0,0,0-1.29-.46,2.14,2.14,0,0,0-1.82,1,4,4,0,0,0-.7,2.41,5.56,5.56,0,0,0,1.07,3.59,3.45,3.45,0,0,0,2.83,1.36,3,3,0,0,0,2.84-1.81.4.4,0,0,1,.46-.19q.28.06.24.39a3.79,3.79,0,0,1-1.33,2.42A4.5,4.5,0,0,1,486.73,93.54Z" />
        <path
          d="M498.26,93.54a5.8,5.8,0,0,1-4.33-1.65,5.43,5.43,0,0,1-1.62-4,5.1,5.1,0,0,1,1.58-3.84,5.3,5.3,0,0,1,3.86-1.54,5.68,5.68,0,0,1,4.17,1.61,5.33,5.33,0,0,1,1.63,3.94A5.43,5.43,0,0,1,502.08,92,5,5,0,0,1,498.26,93.54Zm.33-.84a2,2,0,0,0,1.71-1A4.82,4.82,0,0,0,501,89a7.48,7.48,0,0,0-1-4,2.91,2.91,0,0,0-2.49-1.65,2.2,2.2,0,0,0-1.88,1,4.61,4.61,0,0,0-.69,2.73,7.36,7.36,0,0,0,1,3.89A3.05,3.05,0,0,0,498.59,92.7Z" />
        <path
          d="M515.41,91.5a1.19,1.19,0,0,0,.41.87q.42.41.42.57V93c0,.21-.12.31-.37.31h-2.29a.4.4,0,0,1-.43-.42l-.07-.77A3.67,3.67,0,0,1,510,93.54,4.93,4.93,0,0,1,506.39,92a6,6,0,0,1,0-7.92,4.9,4.9,0,0,1,3.68-1.54,4,4,0,0,1,2.88,1.12V79.55a.93.93,0,0,0-.26-.68,2.44,2.44,0,0,0-.5-.43.45.45,0,0,1-.25-.36v0c0-.19.13-.33.39-.43l2.33-.75c.51-.18.77,0,.77.39Zm-4.81,1.2a2.19,2.19,0,0,0,1.61-.74,2.9,2.9,0,0,0,.72-2.09V86.36a3,3,0,0,0-.84-2,2.52,2.52,0,0,0-2-.94,2.37,2.37,0,0,0-2,1,4.62,4.62,0,0,0-.77,2.74,7.71,7.71,0,0,0,.85,3.93A2.69,2.69,0,0,0,510.6,92.7Z" />
        <path
          d="M526.56,90.09a.42.42,0,0,1,.45-.18.34.34,0,0,1,.26.4,3.76,3.76,0,0,1-1.3,2.21,4.27,4.27,0,0,1-3,1A5.29,5.29,0,0,1,519,92a5.49,5.49,0,0,1-1.51-4,5.18,5.18,0,0,1,5.31-5.4,4.79,4.79,0,0,1,2.91.77,2.65,2.65,0,0,1,.15,4.23,5.7,5.7,0,0,1-2.56,1.19,10.4,10.4,0,0,1-3.18.11,4.35,4.35,0,0,0,1.34,2.08,3.35,3.35,0,0,0,2.17.75,3.45,3.45,0,0,0,1.81-.45A2.79,2.79,0,0,0,526.56,90.09Zm-4.1-6.65a2.23,2.23,0,0,0-1.87,1,4,4,0,0,0-.72,2.43,8.74,8.74,0,0,0,.06,1,10.16,10.16,0,0,0,2.92-.13,2.07,2.07,0,0,0,1.17-.67,2.31,2.31,0,0,0,.39-1.55,2.25,2.25,0,0,0-.56-1.49A1.76,1.76,0,0,0,522.46,83.44Z" />
        <path
          d="M544.57,83.59c0,.09-.07.19-.22.32a2.7,2.7,0,0,0-.44.49,1.21,1.21,0,0,0-.22.73V91.5a1.17,1.17,0,0,0,.42.87q.42.41.42.57V93c0,.21-.13.31-.38.31h-2.28a.37.37,0,0,1-.42-.42V92a3.64,3.64,0,0,1-3.16,1.52A4.9,4.9,0,0,1,534.68,92a6,6,0,0,1,0-7.92,4.86,4.86,0,0,1,3.67-1.54,3.94,3.94,0,0,1,3.12,1.38v-.81a.45.45,0,0,1,.22-.42.77.77,0,0,1,.59,0l1.91.39c.27.08.4.23.4.46Zm-5.69,9.11A2.22,2.22,0,0,0,540.5,92a2.94,2.94,0,0,0,.71-2.09V86.36a3,3,0,0,0-.83-2,2.54,2.54,0,0,0-2-.94,2.37,2.37,0,0,0-2,1,4.62,4.62,0,0,0-.76,2.74,7.82,7.82,0,0,0,.84,3.93A2.69,2.69,0,0,0,538.88,92.7Z" />
        <path
          d="M550.26,93.54a2.91,2.91,0,0,1-2.25-.91,3.83,3.83,0,0,1-.83-2.65V83.85h-1.25a.32.32,0,0,1-.37-.37v-.31c0-.26.12-.39.37-.39h.68a1.72,1.72,0,0,0,1.35-.57,2.79,2.79,0,0,0,.65-1.56c0-.32.19-.49.44-.49h.33c.28,0,.42.17.42.49l0,2.13h2.77a.36.36,0,0,1,.28.11.39.39,0,0,1,.11.28v.31c0,.25-.13.37-.39.37h-2.77V90a1.88,1.88,0,0,0,.35,1.2,1.12,1.12,0,0,0,.9.43,1.39,1.39,0,0,0,1.56-1.14.4.4,0,0,1,.26-.22.39.39,0,0,1,.32,0,.3.3,0,0,1,.14.29,2.89,2.89,0,0,1-.84,2.06A3,3,0,0,1,550.26,93.54Z" />
        <path
          d="M563,93.54a2.91,2.91,0,0,1-2.25-.91A3.82,3.82,0,0,1,559.9,90V83.85h-1.25a.33.33,0,0,1-.38-.37v-.31a.34.34,0,0,1,.38-.39h.68a1.75,1.75,0,0,0,1.35-.57,2.86,2.86,0,0,0,.65-1.56c0-.32.19-.49.43-.49h.33c.28,0,.42.17.42.49l0,2.13h2.77a.38.38,0,0,1,.29.11.39.39,0,0,1,.11.28v.31c0,.25-.14.37-.4.37h-2.77V90a1.88,1.88,0,0,0,.35,1.2,1.15,1.15,0,0,0,.9.43,1.39,1.39,0,0,0,1.56-1.14.4.4,0,0,1,.27-.22.4.4,0,0,1,.32,0,.32.32,0,0,1,.14.29,2.86,2.86,0,0,1-.85,2.06A3,3,0,0,1,563,93.54Z" />
        <path
          d="M577.77,91.45a1.43,1.43,0,0,0,.42.87,1.07,1.07,0,0,1,.37.6V93c0,.21-.15.31-.46.31h-3.23c-.3,0-.46-.1-.46-.31v-.09c0-.13.14-.32.41-.58a1.08,1.08,0,0,0,.38-.87L575,87.13c-.1-2.35-.87-3.52-2.3-3.52a2.06,2.06,0,0,0-1.67.76,2.91,2.91,0,0,0-.64,2V91.5a1.11,1.11,0,0,0,.45.84c.3.26.45.45.45.58V93q0,.33-.48.33h-3.4c-.31,0-.46-.11-.46-.33v-.07a.51.51,0,0,1,.21-.38,4.44,4.44,0,0,0,.44-.43.86.86,0,0,0,.22-.61V79.83a.91.91,0,0,0-.23-.65,2.29,2.29,0,0,0-.46-.43.47.47,0,0,1-.23-.34v-.07c0-.19.13-.34.37-.46l2.35-1c.47-.21.71-.09.71.35l0,6.83a3.53,3.53,0,0,1,3.07-1.47,3.9,3.9,0,0,1,2.85,1.14,5.1,5.1,0,0,1,1.3,3.49Z" />
        <path
          d="M588.73,90.09a.42.42,0,0,1,.45-.18.33.33,0,0,1,.25.4,3.74,3.74,0,0,1-1.29,2.21,4.27,4.27,0,0,1-3,1A5.29,5.29,0,0,1,581.2,92a5.5,5.5,0,0,1-1.52-4,5.2,5.2,0,0,1,5.32-5.4,4.83,4.83,0,0,1,2.91.77,2.65,2.65,0,0,1,.15,4.23,5.7,5.7,0,0,1-2.56,1.19,10.4,10.4,0,0,1-3.18.11,4.28,4.28,0,0,0,1.34,2.08,3.33,3.33,0,0,0,2.17.75,3.39,3.39,0,0,0,1.8-.45A2.76,2.76,0,0,0,588.73,90.09Zm-4.11-6.65a2.21,2.21,0,0,0-1.86,1,3.92,3.92,0,0,0-.73,2.43,8.67,8.67,0,0,0,.07,1,10.16,10.16,0,0,0,2.92-.13,2,2,0,0,0,1.16-.67,2.65,2.65,0,0,0-.16-3A1.76,1.76,0,0,0,584.62,83.44Z" />
        <path
          d="M601.62,82.56A4.94,4.94,0,0,1,605.21,84a5.14,5.14,0,0,1,1.51,3.85,5.73,5.73,0,0,1-1.49,4.06,4.69,4.69,0,0,1-3.59,1.61,3.9,3.9,0,0,1-3.12-1.39l0,.79c0,.28-.15.42-.44.42l-2.37,0c-.27,0-.4-.1-.4-.31v-.07c0-.11.14-.31.42-.58a1.21,1.21,0,0,0,.42-.89V79.94a1,1,0,0,0-.24-.67,2.81,2.81,0,0,0-.47-.45.47.47,0,0,1-.24-.37v-.06c0-.17.15-.31.44-.44l2.26-1.08a.69.69,0,0,1,.57-.08.44.44,0,0,1,.22.45v6.48A3.74,3.74,0,0,1,601.62,82.56Zm-.28,10.14a2.37,2.37,0,0,0,2-1,5.13,5.13,0,0,0,.73-3,7.44,7.44,0,0,0-.86-3.83A2.6,2.6,0,0,0,601,83.39a2.11,2.11,0,0,0-1.59.72,2.49,2.49,0,0,0-.67,1.76v3.71a3.31,3.31,0,0,0,.8,2.17A2.33,2.33,0,0,0,601.34,92.7Z" />
        <path
          d="M619.41,83.59c0,.09-.07.19-.22.32a2.7,2.7,0,0,0-.44.49,1.21,1.21,0,0,0-.22.73V91.5a1.17,1.17,0,0,0,.42.87q.42.41.42.57V93c0,.21-.13.31-.38.31h-2.28a.37.37,0,0,1-.42-.42V92a3.64,3.64,0,0,1-3.16,1.52A4.9,4.9,0,0,1,609.52,92,5.39,5.39,0,0,1,608,88a5.45,5.45,0,0,1,1.48-3.93,4.9,4.9,0,0,1,3.68-1.54,3.94,3.94,0,0,1,3.12,1.38v-.81a.45.45,0,0,1,.22-.42.77.77,0,0,1,.59,0l1.91.39c.27.08.4.23.4.46Zm-5.69,9.11a2.22,2.22,0,0,0,1.62-.74,2.94,2.94,0,0,0,.71-2.09V86.36a3,3,0,0,0-.84-2,2.51,2.51,0,0,0-2-.94,2.37,2.37,0,0,0-2,1,4.62,4.62,0,0,0-.76,2.74,7.82,7.82,0,0,0,.84,3.93A2.69,2.69,0,0,0,613.72,92.7Z" />
        <path
          d="M626.35,93.54a5.48,5.48,0,0,1-4-1.62A5.29,5.29,0,0,1,620.7,88a5.13,5.13,0,0,1,1.61-3.93,5.64,5.64,0,0,1,3.93-1.51,5.21,5.21,0,0,1,3.11.87,2.48,2.48,0,0,1,1.3,2,1,1,0,0,1-.27.69,1.1,1.1,0,0,1-.85.25,1.29,1.29,0,0,1-.94-.5,4.54,4.54,0,0,1-.68-1,3.39,3.39,0,0,0-.8-1,2,2,0,0,0-1.29-.46,2.14,2.14,0,0,0-1.82,1,4,4,0,0,0-.7,2.41,5.56,5.56,0,0,0,1.07,3.59,3.45,3.45,0,0,0,2.83,1.36A3,3,0,0,0,630,89.91a.4.4,0,0,1,.46-.19q.29.06.24.39a3.79,3.79,0,0,1-1.33,2.42A4.5,4.5,0,0,1,626.35,93.54Z" />
        <path
          d="M642.58,91.85a2.14,2.14,0,0,0,.56.47q.45.3.45.6V93c0,.22-.13.33-.38.33h-3.42c-.27,0-.4-.12-.4-.35V92.9a.7.7,0,0,1,.31-.49c.2-.19.25-.37.13-.56l-2.5-3.65a9.16,9.16,0,0,1-1.93.27v3a1.1,1.1,0,0,0,.46.85c.3.25.46.45.46.6V93c0,.22-.16.33-.49.33h-3.4q-.48,0-.48-.33V92.9q0-.23.42-.6a1.17,1.17,0,0,0,.41-.85V80a1.32,1.32,0,0,0-.46-1c-.31-.3-.46-.5-.46-.6v0c0-.16.13-.29.4-.39l2.39-1.12a.6.6,0,0,1,.55,0,.43.43,0,0,1,.2.4v10.1a4.89,4.89,0,0,0,2-.43,2.72,2.72,0,0,0,1.15-.9,6.37,6.37,0,0,0,.63-1.12,7.65,7.65,0,0,0,.41-1.1,1.87,1.87,0,0,1,.44-.85,1,1,0,0,1,.79-.34,1.05,1.05,0,0,1,1.16,1.12,3.64,3.64,0,0,1-.63,1.83,5.46,5.46,0,0,1-1.85,1.82Z" />
        <path
          d="M654.5,93.54a5.82,5.82,0,0,1-4.33-1.65,5.43,5.43,0,0,1-1.62-4,5.14,5.14,0,0,1,1.58-3.84A5.31,5.31,0,0,1,654,82.56a5.71,5.71,0,0,1,4.17,1.61,5.36,5.36,0,0,1,1.62,3.94A5.43,5.43,0,0,1,658.32,92,5,5,0,0,1,654.5,93.54Zm.33-.84a2,2,0,0,0,1.71-1A4.82,4.82,0,0,0,657.2,89a7.48,7.48,0,0,0-1-4,2.88,2.88,0,0,0-2.49-1.65,2.2,2.2,0,0,0-1.88,1,4.61,4.61,0,0,0-.69,2.73,7.45,7.45,0,0,0,1,3.89A3.05,3.05,0,0,0,654.83,92.7Z" />
        <path
          d="M666.29,77.18a3.49,3.49,0,0,1,2.18.7,2.08,2.08,0,0,1,.92,1.67.93.93,0,0,1-.28.65,1,1,0,0,1-.73.29,1.3,1.3,0,0,1-1-.38,1.43,1.43,0,0,1-.36-.86,1.66,1.66,0,0,0-.28-.86,1,1,0,0,0-.88-.4c-.7,0-1.12.48-1.25,1.47a8.34,8.34,0,0,0,.31,3.32h2.9a.34.34,0,0,1,.26.11.36.36,0,0,1,.11.26v.35c0,.24-.13.35-.37.35H665v7.62a1.09,1.09,0,0,0,.53.87c.35.26.53.45.53.58V93c0,.21-.13.31-.38.31h-3.71c-.26,0-.39-.1-.39-.31v-.09c0-.13.14-.32.43-.58a1.15,1.15,0,0,0,.42-.87V83.85h-1.69c-.26,0-.39-.11-.39-.35v-.35a.34.34,0,0,1,.12-.26.36.36,0,0,1,.27-.11h1.69V81.13a4.05,4.05,0,0,1,1-2.85A3.73,3.73,0,0,1,666.29,77.18Z" />
        <path
          d="M682.72,82.6c.48-.06.72.07.72.37v9.25A5.39,5.39,0,0,1,682,96.3a5.25,5.25,0,0,1-3.83,1.43,5.36,5.36,0,0,1-3.26-1,2.76,2.76,0,0,1-1.31-2.2,1,1,0,0,1,.3-.74,1.11,1.11,0,0,1,.8-.29,1.05,1.05,0,0,1,.89.52,4.81,4.81,0,0,1,.57,1.16,2.8,2.8,0,0,0,.8,1.16,2.21,2.21,0,0,0,1.54.54q2.41,0,2.41-4.35V92a3.61,3.61,0,0,1-3,1.3A3.68,3.68,0,0,1,675,92.06a4.77,4.77,0,0,1-1.13-3.31V85a1.25,1.25,0,0,0-.42-.91c-.28-.27-.42-.46-.42-.56v-.07c0-.22.13-.35.4-.39l2.3-.37c.5-.08.75,0,.75.32l0,6a4.45,4.45,0,0,0,.55,2.42,1.73,1.73,0,0,0,1.55.85,2.06,2.06,0,0,0,1.68-.8,3,3,0,0,0,.67-2V85a1.25,1.25,0,0,0-.42-.91c-.29-.27-.43-.46-.43-.56v-.07c0-.22.12-.35.37-.39Z" />
        <path
          d="M691.24,93.54a5.82,5.82,0,0,1-4.33-1.65,5.43,5.43,0,0,1-1.62-4,5.14,5.14,0,0,1,1.58-3.84,5.3,5.3,0,0,1,3.86-1.54,5.72,5.72,0,0,1,4.18,1.61,5.36,5.36,0,0,1,1.62,3.94A5.43,5.43,0,0,1,695.06,92,5,5,0,0,1,691.24,93.54Zm.33-.84a2,2,0,0,0,1.71-1,4.82,4.82,0,0,0,.66-2.72,7.48,7.48,0,0,0-1-4,2.9,2.9,0,0,0-2.49-1.65,2.2,2.2,0,0,0-1.88,1,4.61,4.61,0,0,0-.69,2.73,7.45,7.45,0,0,0,1,3.89A3.05,3.05,0,0,0,691.57,92.7Z" />
        <path
          d="M708.26,91.25a1.76,1.76,0,0,0,.17.86.61.61,0,0,0,.39.32,1,1,0,0,1,.38.13.36.36,0,0,1,.18.34c0,.37-.55.55-1.65.55a2.06,2.06,0,0,1-1.36-.37,1.54,1.54,0,0,1-.42-1.25,3.46,3.46,0,0,1-3.29,1.71,3.83,3.83,0,0,1-3-1.23,5.15,5.15,0,0,1-1.12-3.56V85a1.27,1.27,0,0,0-.41-.91c-.28-.27-.42-.46-.42-.56v-.07q0-.33.39-.39l2.31-.37c.5-.08.75,0,.75.32l-.05,6c0,2.33.74,3.49,2.2,3.49a2.08,2.08,0,0,0,1.68-.82,3.26,3.26,0,0,0,.67-2.14V85a1.22,1.22,0,0,0-.43-.91c-.29-.27-.43-.46-.43-.56v-.07c0-.22.13-.35.38-.39l2.35-.37c.46-.08.7,0,.7.32Z" />
        <path
          d="M716.67,82.56a2,2,0,0,1,1.48.52,1.8,1.8,0,0,1,.54,1.32c0,.92-.38,1.39-1.14,1.39a1,1,0,0,1-.75-.27,1.13,1.13,0,0,1-.33-.59,1.17,1.17,0,0,0-.31-.59.83.83,0,0,0-.65-.27,1.22,1.22,0,0,0-1.12.79,4.22,4.22,0,0,0-.4,1.94v4.7a1.07,1.07,0,0,0,.5.85q.51.38.51.57V93c0,.21-.15.31-.46.31h-3.4c-.31,0-.47-.1-.47-.31v-.09q0-.19.42-.57a1.11,1.11,0,0,0,.42-.85V85.59a1.08,1.08,0,0,0-.47-.87c-.32-.24-.48-.43-.48-.56V84.1c0-.17.14-.32.4-.47l2.15-1c.43-.21.64-.08.64.37v1.71A2.87,2.87,0,0,1,716.67,82.56Z" />
        <path
          d="M734.1,91.5a1.17,1.17,0,0,0,.42.87q.42.41.42.57V93c0,.21-.13.31-.37.31h-2.29a.41.41,0,0,1-.44-.42l-.06-.77a3.69,3.69,0,0,1-3.08,1.41A4.91,4.91,0,0,1,725.09,92a6,6,0,0,1,0-7.92,4.88,4.88,0,0,1,3.68-1.54,4,4,0,0,1,2.87,1.12V79.55a.92.92,0,0,0-.25-.68,3.11,3.11,0,0,0-.5-.43.46.46,0,0,1-.26-.36v0c0-.19.13-.33.4-.43l2.33-.75c.51-.18.76,0,.76.39Zm-4.8,1.2a2.2,2.2,0,0,0,1.61-.74,2.9,2.9,0,0,0,.71-2.09V86.36a3,3,0,0,0-.83-2,2.54,2.54,0,0,0-2-.94,2.36,2.36,0,0,0-2,1,4.55,4.55,0,0,0-.77,2.74,7.82,7.82,0,0,0,.84,3.93A2.71,2.71,0,0,0,729.3,92.7Z" />
        <path
          d="M745.26,90.09a.42.42,0,0,1,.45-.18.33.33,0,0,1,.25.4,3.74,3.74,0,0,1-1.29,2.21,4.27,4.27,0,0,1-3,1A5.29,5.29,0,0,1,737.73,92a5.5,5.5,0,0,1-1.52-4,5.2,5.2,0,0,1,5.32-5.4,4.83,4.83,0,0,1,2.91.77,2.65,2.65,0,0,1,.15,4.23A5.7,5.7,0,0,1,742,88.75a10.4,10.4,0,0,1-3.18.11,4.28,4.28,0,0,0,1.34,2.08,3.33,3.33,0,0,0,2.17.75,3.44,3.44,0,0,0,1.8-.45A2.76,2.76,0,0,0,745.26,90.09Zm-4.11-6.65a2.21,2.21,0,0,0-1.86,1,3.92,3.92,0,0,0-.73,2.43,7,7,0,0,0,.07,1,10.16,10.16,0,0,0,2.92-.13,2,2,0,0,0,1.16-.67,2.65,2.65,0,0,0-.16-3A1.78,1.78,0,0,0,741.15,83.44Z" />
        <path
          d="M751.41,93.54a3.47,3.47,0,0,1-2.53-1,4.28,4.28,0,0,1-1-3.15V85a1.25,1.25,0,0,0-.42-.91c-.28-.27-.42-.46-.42-.56v-.07c0-.22.13-.35.37-.39l2.33-.37c.5-.08.75,0,.75.32l0,7.14c0,1.57.48,2.36,1.49,2.37a3.4,3.4,0,0,0,2.77-1.54,6,6,0,0,0,1.2-3.77,2.59,2.59,0,0,0-.28-1.25,2.19,2.19,0,0,0-.63-.77,2.86,2.86,0,0,1-.62-.63,1.39,1.39,0,0,1-.29-.86,1,1,0,0,1,.31-.79,1.22,1.22,0,0,1,.92-.31,1.74,1.74,0,0,1,1.47.82,4.63,4.63,0,0,1,.59,2.67,8.11,8.11,0,0,1-1.73,5.42A5.37,5.37,0,0,1,751.41,93.54Z" />
        <path
          d="M759.45,93.32c-.31,0-.46-.11-.46-.33V92.9c0-.13.13-.32.4-.57a1.14,1.14,0,0,0,.41-.86V85.72a1.36,1.36,0,0,0-.41-.94c-.27-.3-.4-.49-.4-.58v-.06c0-.12.13-.25.39-.4l2.2-1.09a.64.64,0,0,1,.58,0,.44.44,0,0,1,.21.41v8.45a1.09,1.09,0,0,0,.45.86q.45.38.45.57V93c0,.22-.16.33-.49.33ZM761.07,81a1.88,1.88,0,0,1-1.32-.46,1.53,1.53,0,0,1-.5-1.18,1.55,1.55,0,0,1,.5-1.19,1.88,1.88,0,0,1,1.32-.46,1.8,1.8,0,0,1,1.29.46,1.55,1.55,0,0,1,.49,1.19,1.53,1.53,0,0,1-.49,1.18A1.8,1.8,0,0,1,761.07,81Z" />
        <path
          d="M770.1,93.54a5.48,5.48,0,0,1-4-1.62A5.29,5.29,0,0,1,764.45,88a5.13,5.13,0,0,1,1.61-3.93A5.6,5.6,0,0,1,770,82.56a5.16,5.16,0,0,1,3.1.87,2.47,2.47,0,0,1,1.31,2,1,1,0,0,1-.27.69,1.1,1.1,0,0,1-.85.25,1.27,1.27,0,0,1-.94-.5,4.54,4.54,0,0,1-.68-1,3.28,3.28,0,0,0-.81-1,1.91,1.91,0,0,0-1.28-.46,2.14,2.14,0,0,0-1.82,1,4,4,0,0,0-.71,2.41,5.57,5.57,0,0,0,1.08,3.59A3.45,3.45,0,0,0,771,91.72a3,3,0,0,0,2.84-1.81.4.4,0,0,1,.46-.19q.29.06.24.39a3.79,3.79,0,0,1-1.33,2.42A4.5,4.5,0,0,1,770.1,93.54Z" />
        <path
          d="M784.74,90.09a.42.42,0,0,1,.45-.18.34.34,0,0,1,.26.4,3.76,3.76,0,0,1-1.3,2.21,4.24,4.24,0,0,1-3,1,5.3,5.3,0,0,1-4-1.54,5.49,5.49,0,0,1-1.51-4,5.18,5.18,0,0,1,5.31-5.4,4.79,4.79,0,0,1,2.91.77,2.65,2.65,0,0,1,.15,4.23,5.71,5.71,0,0,1-2.55,1.19,10.48,10.48,0,0,1-3.19.11,4.35,4.35,0,0,0,1.34,2.08,3.36,3.36,0,0,0,2.18.75,3.44,3.44,0,0,0,1.8-.45A2.79,2.79,0,0,0,784.74,90.09Zm-4.1-6.65a2.24,2.24,0,0,0-1.87,1,4,4,0,0,0-.72,2.43,8.74,8.74,0,0,0,.06,1,10.16,10.16,0,0,0,2.92-.13,2.07,2.07,0,0,0,1.17-.67,2.31,2.31,0,0,0,.39-1.55,2.25,2.25,0,0,0-.56-1.49A1.76,1.76,0,0,0,780.64,83.44Z" />
        <path
          d="M787.58,96.41a.37.37,0,0,1-.52-.07.33.33,0,0,1,0-.5,3.78,3.78,0,0,0,1.23-1.93c.05-.25,0-.37-.22-.37a1.12,1.12,0,0,1-.89-.44,1.71,1.71,0,0,1-.36-1.12,1.76,1.76,0,0,1,.45-1.25,1.65,1.65,0,0,1,2.39,0,2.05,2.05,0,0,1,.5,1.44A5,5,0,0,1,787.58,96.41Z" />
        <path
          d="M290.28,119.89a5.79,5.79,0,0,1-4.33-1.65,5.44,5.44,0,0,1-1.63-3.95,5.11,5.11,0,0,1,1.59-3.84,5.3,5.3,0,0,1,3.86-1.54,5.68,5.68,0,0,1,4.17,1.61,5.33,5.33,0,0,1,1.63,4,5.42,5.42,0,0,1-1.47,3.86A5,5,0,0,1,290.28,119.89Zm.33-.83a2,2,0,0,0,1.71-1,4.81,4.81,0,0,0,.66-2.71,7.58,7.58,0,0,0-1-4,2.91,2.91,0,0,0-2.49-1.65,2.19,2.19,0,0,0-1.88,1,4.63,4.63,0,0,0-.69,2.73,7.36,7.36,0,0,0,1,3.89A3.05,3.05,0,0,0,290.61,119.06Z" />
        <path
          d="M303.08,108.91a2,2,0,0,1,1.48.53,1.76,1.76,0,0,1,.54,1.31c0,.93-.38,1.39-1.14,1.39a1,1,0,0,1-.75-.27,1.07,1.07,0,0,1-.33-.59,1.17,1.17,0,0,0-.31-.59.83.83,0,0,0-.66-.26,1.23,1.23,0,0,0-1.12.79,4.31,4.31,0,0,0-.39,1.93v4.7a1.05,1.05,0,0,0,.5.85q.51.38.51.57v.09c0,.21-.15.31-.46.31h-3.41c-.3,0-.46-.1-.46-.31v-.09q0-.19.42-.57a1.1,1.1,0,0,0,.42-.85v-5.91a1.08,1.08,0,0,0-.47-.87c-.32-.24-.48-.43-.48-.56v-.06c0-.16.14-.32.4-.46l2.15-1c.43-.21.64-.08.64.37v1.71A2.87,2.87,0,0,1,303.08,108.91Z" />
        <path
          d="M319,116.44a.39.39,0,0,1,.45-.17c.19,0,.27.17.26.39a3.76,3.76,0,0,1-1.3,2.21,4.27,4.27,0,0,1-3,1,5.29,5.29,0,0,1-3.95-1.54,5.49,5.49,0,0,1-1.51-4,5.2,5.2,0,0,1,5.31-5.4,4.86,4.86,0,0,1,2.91.77,2.66,2.66,0,0,1,.15,4.24,5.81,5.81,0,0,1-2.55,1.18,10.48,10.48,0,0,1-3.19.11,4.35,4.35,0,0,0,1.34,2.08,3.36,3.36,0,0,0,2.17.76,3.45,3.45,0,0,0,1.81-.45A2.82,2.82,0,0,0,319,116.44Zm-4.1-6.65a2.21,2.21,0,0,0-1.87,1,4,4,0,0,0-.72,2.42,9,9,0,0,0,.06,1.06,10.5,10.5,0,0,0,2.92-.14,2.07,2.07,0,0,0,1.17-.67,2.68,2.68,0,0,0-.17-3A1.76,1.76,0,0,0,314.94,109.79Z" />
        <path
          d="M332,117.83a1.26,1.26,0,0,0,.4.86c.26.26.39.45.39.58v.09c0,.22-.17.33-.49.33h-3.2c-.33,0-.49-.11-.49-.33v-.09c0-.13.14-.32.41-.58a1.06,1.06,0,0,0,.38-.86l-.22-4.24c-.1-2.42-.87-3.63-2.3-3.63a2.09,2.09,0,0,0-1.67.76,2.94,2.94,0,0,0-.64,2v5.16a1.07,1.07,0,0,0,.45.85q.45.38.45.57v.09q0,.33-.48.33h-3.4c-.31,0-.46-.11-.46-.33v-.09c0-.13.14-.32.43-.57a1.06,1.06,0,0,0,.44-.85V112a.94.94,0,0,0-.25-.68,3.68,3.68,0,0,0-.49-.43.45.45,0,0,1-.24-.36v-.06c0-.15.13-.28.39-.4l2.13-1c.23-.1.41-.12.52,0a.52.52,0,0,1,.16.43v1.43a3.44,3.44,0,0,1,1.34-1.41,4,4,0,0,1,2-.5,3.88,3.88,0,0,1,2.85,1.16,5.41,5.41,0,0,1,1.32,3.61Z" />
        <path
          d="M337.93,119.89a2.87,2.87,0,0,1-2.25-.91,3.83,3.83,0,0,1-.83-2.65v-6.12H333.6a.33.33,0,0,1-.37-.38v-.31c0-.26.12-.39.37-.39h.68a1.72,1.72,0,0,0,1.35-.57,2.79,2.79,0,0,0,.65-1.56c.05-.32.19-.48.44-.48h.33q.42,0,.42.48l0,2.13h2.77a.39.39,0,0,1,.28.11.36.36,0,0,1,.11.28v.31a.34.34,0,0,1-.39.38h-2.77v6.14a1.85,1.85,0,0,0,.35,1.2,1.1,1.1,0,0,0,.9.43,1.39,1.39,0,0,0,1.56-1.14.4.4,0,0,1,.26-.22.39.39,0,0,1,.32,0,.32.32,0,0,1,.15.29,2.88,2.88,0,0,1-.85,2.06A3,3,0,0,1,337.93,119.89Z" />
        <path
          d="M350.84,116.44a.39.39,0,0,1,.45-.17.32.32,0,0,1,.25.39,3.74,3.74,0,0,1-1.29,2.21,4.27,4.27,0,0,1-3,1,5.29,5.29,0,0,1-3.95-1.54,5.5,5.5,0,0,1-1.52-4,5.21,5.21,0,0,1,5.32-5.4,4.9,4.9,0,0,1,2.91.77,2.66,2.66,0,0,1,.15,4.24,5.79,5.79,0,0,1-2.56,1.18,10.4,10.4,0,0,1-3.18.11,4.28,4.28,0,0,0,1.34,2.08,3.34,3.34,0,0,0,2.17.76,3.44,3.44,0,0,0,1.8-.45A2.78,2.78,0,0,0,350.84,116.44Zm-4.11-6.65a2.2,2.2,0,0,0-1.86,1,3.91,3.91,0,0,0-.73,2.42,7.26,7.26,0,0,0,.07,1.06,10.5,10.5,0,0,0,2.92-.14,2,2,0,0,0,1.16-.67,2.27,2.27,0,0,0,.4-1.54,2.31,2.31,0,0,0-.56-1.5A1.76,1.76,0,0,0,346.73,109.79Z" />
        <path
          d="M358.9,108.91a2,2,0,0,1,1.48.53,1.76,1.76,0,0,1,.54,1.31c0,.93-.38,1.39-1.14,1.39a1,1,0,0,1-.75-.27,1.2,1.2,0,0,1-.33-.59,1.15,1.15,0,0,0-.3-.59.86.86,0,0,0-.66-.26,1.21,1.21,0,0,0-1.12.79,4.18,4.18,0,0,0-.4,1.93v4.7a1,1,0,0,0,.51.85c.33.25.5.44.5.57v.09c0,.21-.15.31-.46.31h-3.4c-.31,0-.46-.1-.46-.31v-.09c0-.13.13-.32.41-.57a1.1,1.1,0,0,0,.42-.85v-5.91a1.08,1.08,0,0,0-.47-.87c-.32-.24-.47-.43-.47-.56v-.06c0-.16.13-.32.39-.46l2.15-1c.43-.21.64-.08.64.37v1.71A2.87,2.87,0,0,1,358.9,108.91Z" />
        <path
          d="M369.86,119.89a2.87,2.87,0,0,1-2.25-.91,3.83,3.83,0,0,1-.83-2.65v-6.12h-1.25a.33.33,0,0,1-.37-.38v-.31c0-.26.12-.39.37-.39h.68a1.72,1.72,0,0,0,1.35-.57,2.79,2.79,0,0,0,.65-1.56c.05-.32.19-.48.44-.48H369q.42,0,.42.48l0,2.13h2.77a.38.38,0,0,1,.39.39v.31a.34.34,0,0,1-.39.38h-2.77v6.14a1.85,1.85,0,0,0,.35,1.2,1.09,1.09,0,0,0,.9.43,1.39,1.39,0,0,0,1.56-1.14.4.4,0,0,1,.26-.22.39.39,0,0,1,.32,0,.31.31,0,0,1,.14.29,2.87,2.87,0,0,1-.84,2.06A3,3,0,0,1,369.86,119.89Z" />
        <path
          d="M384.66,117.8a1.4,1.4,0,0,0,.42.87,1.07,1.07,0,0,1,.37.6v.09c0,.21-.15.31-.46.31h-3.23c-.31,0-.46-.1-.46-.31v-.09c0-.13.13-.32.41-.58a1.09,1.09,0,0,0,.38-.86l-.22-4.35c-.1-2.34-.87-3.52-2.31-3.52a2.08,2.08,0,0,0-1.66.76,2.94,2.94,0,0,0-.64,2v5.16a1.08,1.08,0,0,0,.45.84c.3.26.45.45.45.58v.07q0,.33-.48.33h-3.41c-.31,0-.46-.11-.46-.33v-.07a.51.51,0,0,1,.22-.38,4.41,4.41,0,0,0,.44-.43.85.85,0,0,0,.22-.61V106.19a1,1,0,0,0-.23-.66,2.59,2.59,0,0,0-.46-.43.42.42,0,0,1-.23-.34v-.07c0-.19.12-.34.37-.46l2.35-1c.47-.2.7-.09.7.35l0,6.83a3.55,3.55,0,0,1,3.08-1.47,3.93,3.93,0,0,1,2.85,1.14,5.12,5.12,0,0,1,1.3,3.49Z" />
        <path
          d="M395.62,116.44a.39.39,0,0,1,.45-.17c.18,0,.26.17.25.39a3.76,3.76,0,0,1-1.3,2.21,4.24,4.24,0,0,1-3,1,5.31,5.31,0,0,1-4-1.54,5.53,5.53,0,0,1-1.51-4,5.2,5.2,0,0,1,5.31-5.4,4.86,4.86,0,0,1,2.91.77,2.67,2.67,0,0,1,.16,4.24,5.85,5.85,0,0,1-2.56,1.18,10.47,10.47,0,0,1-3.19.11,4.35,4.35,0,0,0,1.34,2.08,3.36,3.36,0,0,0,2.18.76,3.44,3.44,0,0,0,1.8-.45A2.84,2.84,0,0,0,395.62,116.44Zm-4.11-6.65a2.22,2.22,0,0,0-1.87,1,4,4,0,0,0-.72,2.42,7.26,7.26,0,0,0,.07,1.06,10.52,10.52,0,0,0,2.92-.14,2.08,2.08,0,0,0,1.16-.67,2.27,2.27,0,0,0,.4-1.54,2.36,2.36,0,0,0-.56-1.5A1.78,1.78,0,0,0,391.51,109.79Z" />
        <path
          d="M406.77,119.87a6.26,6.26,0,0,1-3.31-.78c-.85-.52-1.28-1.1-1.28-1.75a.92.92,0,0,1,.3-.74,1.14,1.14,0,0,1,.8-.27,1,1,0,0,1,.74.29,2.21,2.21,0,0,1,.47.7,7,7,0,0,0,.41.82,1.88,1.88,0,0,0,.7.7,2.2,2.2,0,0,0,1.17.28,2.31,2.31,0,0,0,1.46-.44,1.48,1.48,0,0,0,.56-1.25,1.44,1.44,0,0,0-.66-1.26,4.52,4.52,0,0,0-1.59-.67c-.62-.15-1.25-.32-1.88-.51a3.5,3.5,0,0,1-1.6-1,2.8,2.8,0,0,1-.66-1.94,2.69,2.69,0,0,1,1.21-2.23,5.13,5.13,0,0,1,3.1-.89,5.71,5.71,0,0,1,3.17.8,2.25,2.25,0,0,1,1.22,1.81.88.88,0,0,1-.29.68,1,1,0,0,1-.72.27.91.91,0,0,1-.69-.29,2.25,2.25,0,0,1-.46-.69c-.13-.27-.26-.54-.4-.81a1.82,1.82,0,0,0-.64-.69,2.07,2.07,0,0,0-2.38.19,1.6,1.6,0,0,0-.53,1.21,1.46,1.46,0,0,0,.66,1.27,4.82,4.82,0,0,0,1.59.7c.63.15,1.25.32,1.88.51a3.54,3.54,0,0,1,1.61,1,2.83,2.83,0,0,1,.65,1.94,2.58,2.58,0,0,1-1.26,2.18A5.8,5.8,0,0,1,406.77,119.87Z" />
        <path
          d="M421.66,116.44a.39.39,0,0,1,.45-.17.32.32,0,0,1,.25.39,3.74,3.74,0,0,1-1.29,2.21,4.27,4.27,0,0,1-3,1,5.29,5.29,0,0,1-3.95-1.54,5.5,5.5,0,0,1-1.52-4,5.21,5.21,0,0,1,5.32-5.4,4.9,4.9,0,0,1,2.91.77,2.66,2.66,0,0,1,.15,4.24,5.79,5.79,0,0,1-2.56,1.18,10.4,10.4,0,0,1-3.18.11,4.28,4.28,0,0,0,1.34,2.08,3.34,3.34,0,0,0,2.17.76,3.39,3.39,0,0,0,1.8-.45A2.78,2.78,0,0,0,421.66,116.44Zm-4.11-6.65a2.2,2.2,0,0,0-1.86,1,3.91,3.91,0,0,0-.73,2.42,9,9,0,0,0,.07,1.06,10.5,10.5,0,0,0,2.92-.14,2,2,0,0,0,1.16-.67,2.27,2.27,0,0,0,.4-1.54,2.31,2.31,0,0,0-.56-1.5A1.76,1.76,0,0,0,417.55,109.79Z" />
        <path
          d="M429.72,108.91a2,2,0,0,1,1.48.53,1.76,1.76,0,0,1,.54,1.31c0,.93-.38,1.39-1.14,1.39a1,1,0,0,1-.75-.27,1.2,1.2,0,0,1-.33-.59,1.15,1.15,0,0,0-.3-.59.86.86,0,0,0-.66-.26,1.21,1.21,0,0,0-1.12.79,4.18,4.18,0,0,0-.4,1.93v4.7a1,1,0,0,0,.51.85c.33.25.5.44.5.57v.09c0,.21-.15.31-.46.31h-3.4c-.31,0-.47-.1-.47-.31v-.09q0-.19.42-.57a1.1,1.1,0,0,0,.42-.85v-5.91a1.08,1.08,0,0,0-.47-.87c-.32-.24-.47-.43-.47-.56v-.06c0-.16.13-.32.39-.46l2.15-1c.43-.21.64-.08.64.37v1.71A2.87,2.87,0,0,1,429.72,108.91Z" />
        <path
          d="M433.08,119.67c-.31,0-.46-.11-.46-.33v-.09c0-.13.13-.32.41-.57a1.12,1.12,0,0,0,.4-.85v-5.76a1.36,1.36,0,0,0-.4-.94c-.28-.29-.41-.49-.41-.57v-.07q0-.18.39-.39l2.2-1.1a.67.67,0,0,1,.58,0,.45.45,0,0,1,.21.41v8.46a1.09,1.09,0,0,0,.45.85q.45.38.45.57v.09q0,.33-.48.33Zm1.63-12.36a1.89,1.89,0,0,1-1.32-.46,1.64,1.64,0,0,1,0-2.38,1.89,1.89,0,0,1,1.32-.46,1.84,1.84,0,0,1,1.28.46,1.69,1.69,0,0,1,0,2.38A1.84,1.84,0,0,1,434.71,107.31Z" />
        <path
          d="M449.66,109.94c0,.09-.07.2-.22.32a3.09,3.09,0,0,0-.44.49,1.21,1.21,0,0,0-.22.73v6.37a1.2,1.2,0,0,0,.42.88q.42.39.42.57v.06c0,.21-.13.31-.38.31H447a.37.37,0,0,1-.42-.42v-.88a3.64,3.64,0,0,1-3.16,1.52,4.9,4.9,0,0,1-3.61-1.52,5.39,5.39,0,0,1-1.51-4,5.45,5.45,0,0,1,1.48-3.93,4.9,4.9,0,0,1,3.68-1.54,3.94,3.94,0,0,1,3.12,1.38v-.81a.45.45,0,0,1,.22-.42.81.81,0,0,1,.59,0l1.91.39a.47.47,0,0,1,.4.47ZM444,119.06a2.2,2.2,0,0,0,1.62-.75,2.92,2.92,0,0,0,.71-2.09v-3.51a3,3,0,0,0-.83-2,2.57,2.57,0,0,0-2-.94,2.37,2.37,0,0,0-2,1,4.62,4.62,0,0,0-.76,2.74,7.79,7.79,0,0,0,.84,3.93A2.72,2.72,0,0,0,444,119.06Z" />
        <path
          d="M451.64,119.67c-.31,0-.46-.11-.46-.33v-.07c0-.14.13-.34.4-.59a1.11,1.11,0,0,0,.41-.83V106.27a1.32,1.32,0,0,0-.41-.94c-.27-.28-.4-.46-.4-.55v-.06c0-.14.12-.27.37-.4l2.22-1.1a.66.66,0,0,1,.58,0,.41.41,0,0,1,.21.38v14.28a1.08,1.08,0,0,0,.45.84c.3.26.45.45.45.58v.07c0,.22-.16.33-.49.33Z" />
        <path
          d="M472.52,117.83a1.23,1.23,0,0,0,.41.86c.25.26.38.45.38.58v.09q0,.33-.48.33h-3.21q-.48,0-.48-.33v-.09c0-.13.13-.32.4-.58a1.07,1.07,0,0,0,.39-.86l-.22-4.24q-.15-3.63-2.31-3.63a2.11,2.11,0,0,0-1.67.76,3,3,0,0,0-.63,2v5.16a1.07,1.07,0,0,0,.45.85q.45.38.45.57v.09c0,.22-.16.33-.49.33h-3.4c-.31,0-.46-.11-.46-.33v-.09c0-.13.15-.32.44-.57a1.09,1.09,0,0,0,.44-.85V112a1,1,0,0,0-.25-.68,3.72,3.72,0,0,0-.5-.43.45.45,0,0,1-.24-.36v-.06c0-.15.13-.28.4-.4l2.13-1c.23-.1.4-.12.51,0a.52.52,0,0,1,.17.43v1.43a3.31,3.31,0,0,1,1.34-1.41,4,4,0,0,1,2-.5,3.92,3.92,0,0,1,2.86,1.16,5.51,5.51,0,0,1,1.32,3.61Z" />
        <path
          d="M484.8,117.61a1.61,1.61,0,0,0,.17.85.61.61,0,0,0,.39.32,1.32,1.32,0,0,1,.38.13.36.36,0,0,1,.18.34c0,.37-.55.55-1.65.55a2,2,0,0,1-1.36-.37,1.48,1.48,0,0,1-.42-1.25,3.46,3.46,0,0,1-3.29,1.71,3.83,3.83,0,0,1-3-1.23,5.1,5.1,0,0,1-1.12-3.56v-3.8a1.25,1.25,0,0,0-.42-.91c-.27-.27-.41-.46-.41-.56v-.06c0-.22.13-.36.39-.4L477,109c.49-.08.74,0,.74.33l0,6c0,2.33.73,3.5,2.2,3.5a2.09,2.09,0,0,0,1.68-.83,3.32,3.32,0,0,0,.67-2.14V111.3a1.26,1.26,0,0,0-.43-.91c-.29-.27-.43-.46-.43-.56v-.06a.38.38,0,0,1,.37-.4l2.35-.37c.47-.08.71,0,.71.33Z" />
        <path
          d="M505.06,117.83a1.31,1.31,0,0,0,.41.87c.26.27.38.47.38.6v.08c0,.21-.15.31-.46.31h-3.22c-.31,0-.47-.1-.47-.31v-.08c0-.13.14-.33.4-.58a1.11,1.11,0,0,0,.37-.87l-.22-4.15a5.84,5.84,0,0,0-.67-2.86,1.87,1.87,0,0,0-1.65-.88,2,2,0,0,0-1.53.74,2.94,2.94,0,0,0-.67,1.86,5.26,5.26,0,0,1,.09,1v4.24a1.23,1.23,0,0,0,.38.87c.26.25.39.45.39.58v.08c0,.21-.16.31-.47.31h-3.18c-.32,0-.48-.1-.48-.31v-.08c0-.13.13-.33.38-.58a1.2,1.2,0,0,0,.39-.87v-4.39a4.42,4.42,0,0,0-.65-2.57,2,2,0,0,0-1.66-.93,2,2,0,0,0-1.62.74,2.94,2.94,0,0,0-.69,1.88l0,5.27a1.13,1.13,0,0,0,.44.87c.29.25.44.45.44.58v.08c0,.21-.16.31-.47.31h-3.4c-.32,0-.48-.1-.48-.31v-.08c0-.13.14-.33.44-.58a1.16,1.16,0,0,0,.44-.87V112a1,1,0,0,0-.25-.66,3.84,3.84,0,0,0-.48-.44.47.47,0,0,1-.24-.37v-.06c0-.15.13-.28.39-.4l2.24-1c.24-.1.41-.12.53,0a.5.5,0,0,1,.18.43v1.3a3.68,3.68,0,0,1,1.3-1.3,3.58,3.58,0,0,1,1.84-.48,4.25,4.25,0,0,1,2.18.57,4.06,4.06,0,0,1,1.53,1.6,3.29,3.29,0,0,1,1.34-1.6,3.87,3.87,0,0,1,2.08-.57,3.75,3.75,0,0,1,2.83,1.15,5.82,5.82,0,0,1,1.28,3.7Z" />
        <path
          d="M513.23,108.91a5,5,0,0,1,3.59,1.46,5.1,5.1,0,0,1,1.51,3.85,5.81,5.81,0,0,1-1.48,4.07,4.71,4.71,0,0,1-3.59,1.6,3.91,3.91,0,0,1-3.12-1.38l0,.79c0,.28-.15.41-.44.41l-2.37,0c-.27,0-.4-.1-.4-.31v-.06c0-.12.14-.31.42-.58a1.24,1.24,0,0,0,.42-.89V106.3a1,1,0,0,0-.23-.67,2.22,2.22,0,0,0-.48-.45.5.5,0,0,1-.24-.38v-.06c0-.16.15-.31.44-.44l2.26-1.08a.7.7,0,0,1,.58-.07q.21.09.21.45v6.47A3.74,3.74,0,0,1,513.23,108.91ZM513,119.06a2.37,2.37,0,0,0,2-1.06,5.12,5.12,0,0,0,.74-3,7.48,7.48,0,0,0-.87-3.84,2.6,2.6,0,0,0-2.27-1.46,2.12,2.12,0,0,0-1.6.72,2.5,2.5,0,0,0-.67,1.77v3.71a3.26,3.26,0,0,0,.81,2.16A2.31,2.31,0,0,0,513,119.06Z" />
        <path
          d="M528.67,116.44a.39.39,0,0,1,.45-.17.32.32,0,0,1,.25.39,3.74,3.74,0,0,1-1.29,2.21,4.27,4.27,0,0,1-3,1,5.29,5.29,0,0,1-4-1.54,5.5,5.5,0,0,1-1.52-4,5.21,5.21,0,0,1,5.32-5.4,4.9,4.9,0,0,1,2.91.77,2.66,2.66,0,0,1,.15,4.24,5.79,5.79,0,0,1-2.56,1.18,10.4,10.4,0,0,1-3.18.11,4.28,4.28,0,0,0,1.34,2.08,3.34,3.34,0,0,0,2.17.76,3.41,3.41,0,0,0,1.8-.45A2.78,2.78,0,0,0,528.67,116.44Zm-4.11-6.65a2.2,2.2,0,0,0-1.86,1,3.91,3.91,0,0,0-.73,2.42,7.26,7.26,0,0,0,.07,1.06,10.5,10.5,0,0,0,2.92-.14,2,2,0,0,0,1.16-.67,2.27,2.27,0,0,0,.4-1.54,2.31,2.31,0,0,0-.56-1.5A1.76,1.76,0,0,0,524.56,109.79Z" />
        <path
          d="M536.73,108.91a2,2,0,0,1,1.48.53,1.76,1.76,0,0,1,.54,1.31c0,.93-.38,1.39-1.14,1.39a1,1,0,0,1-.75-.27,1.2,1.2,0,0,1-.33-.59,1.15,1.15,0,0,0-.3-.59.86.86,0,0,0-.66-.26,1.21,1.21,0,0,0-1.12.79,4.18,4.18,0,0,0-.4,1.93v4.7a1,1,0,0,0,.51.85c.33.25.5.44.5.57v.09c0,.21-.15.31-.46.31h-3.4c-.31,0-.46-.1-.46-.31v-.09c0-.13.13-.32.41-.57a1.1,1.1,0,0,0,.42-.85v-5.91a1.08,1.08,0,0,0-.47-.87c-.32-.24-.47-.43-.47-.56v-.06c0-.16.13-.32.39-.46l2.15-1c.43-.21.64-.08.64.37v1.71A2.87,2.87,0,0,1,536.73,108.91Z" />
        <path
          d="M544.28,119.67c-.3,0-.46-.11-.46-.33v-.09c0-.13.14-.32.41-.57a1.13,1.13,0,0,0,.41-.85v-5.76a1.38,1.38,0,0,0-.41-.94c-.27-.29-.41-.49-.41-.57v-.07c0-.12.14-.25.4-.39l2.19-1.1a.69.69,0,0,1,.59,0,.45.45,0,0,1,.21.41v8.46a1.09,1.09,0,0,0,.45.85q.45.38.45.57v.09c0,.22-.17.33-.49.33Zm1.63-12.36a1.93,1.93,0,0,1-1.32-.46,1.67,1.67,0,0,1,0-2.38,1.93,1.93,0,0,1,1.32-.46,1.81,1.81,0,0,1,1.28.46,1.67,1.67,0,0,1,0,2.38A1.81,1.81,0,0,1,545.91,107.31Z" />
        <path
          d="M560.49,117.83a1.27,1.27,0,0,0,.41.86c.25.26.38.45.38.58v.09q0,.33-.48.33h-3.21q-.48,0-.48-.33v-.09c0-.13.13-.32.41-.58a1.09,1.09,0,0,0,.38-.86l-.22-4.24q-.15-3.63-2.31-3.63a2.08,2.08,0,0,0-1.66.76,2.94,2.94,0,0,0-.64,2v5.16a1.07,1.07,0,0,0,.45.85q.45.38.45.57v.09q0,.33-.48.33h-3.41c-.31,0-.46-.11-.46-.33v-.09c0-.13.15-.32.44-.57a1.09,1.09,0,0,0,.44-.85V112a1,1,0,0,0-.25-.68,3.72,3.72,0,0,0-.5-.43.45.45,0,0,1-.24-.36v-.06c0-.15.13-.28.4-.4l2.13-1c.23-.1.4-.12.51,0a.52.52,0,0,1,.17.43v1.43a3.31,3.31,0,0,1,1.34-1.41,4,4,0,0,1,2-.5,3.91,3.91,0,0,1,2.85,1.16,5.46,5.46,0,0,1,1.32,3.61Z" />
        <path
          d="M571.14,119.89a2.87,2.87,0,0,1-2.25-.91,3.82,3.82,0,0,1-.82-2.65v-6.12h-1.25a.34.34,0,0,1-.38-.38v-.31a.34.34,0,0,1,.38-.39h.68a1.75,1.75,0,0,0,1.35-.57,2.78,2.78,0,0,0,.64-1.56c0-.32.19-.48.44-.48h.33q.42,0,.42.48l0,2.13h2.77a.38.38,0,0,1,.28.11.36.36,0,0,1,.11.28v.31a.34.34,0,0,1-.39.38H570.7v6.14a1.85,1.85,0,0,0,.35,1.2,1.12,1.12,0,0,0,.9.43,1.39,1.39,0,0,0,1.56-1.14.4.4,0,0,1,.27-.22.4.4,0,0,1,.32,0,.33.33,0,0,1,.14.29,2.84,2.84,0,0,1-.85,2.06A3,3,0,0,1,571.14,119.89Z" />
        <path
          d="M585.94,117.8a1.4,1.4,0,0,0,.42.87,1.07,1.07,0,0,1,.37.6v.09c0,.21-.15.31-.46.31H583c-.3,0-.46-.1-.46-.31v-.09c0-.13.14-.32.41-.58a1.06,1.06,0,0,0,.38-.86l-.22-4.35c-.1-2.34-.87-3.52-2.3-3.52a2.09,2.09,0,0,0-1.67.76,2.94,2.94,0,0,0-.64,2v5.16a1.08,1.08,0,0,0,.45.84c.3.26.45.45.45.58v.07q0,.33-.48.33h-3.4c-.31,0-.47-.11-.47-.33v-.07a.55.55,0,0,1,.22-.38,3.55,3.55,0,0,0,.44-.43.85.85,0,0,0,.22-.61V106.19a.92.92,0,0,0-.23-.66,2.59,2.59,0,0,0-.46-.43.45.45,0,0,1-.23-.34v-.07c0-.19.12-.34.37-.46l2.35-1c.47-.2.71-.09.71.35l0,6.83a3.56,3.56,0,0,1,3.08-1.47,3.9,3.9,0,0,1,2.85,1.14,5.12,5.12,0,0,1,1.3,3.49Z" />
        <path
          d="M596.9,116.44a.39.39,0,0,1,.45-.17.32.32,0,0,1,.25.39,3.74,3.74,0,0,1-1.29,2.21,4.27,4.27,0,0,1-3,1,5.29,5.29,0,0,1-4-1.54,5.5,5.5,0,0,1-1.52-4,5.21,5.21,0,0,1,5.32-5.4,4.9,4.9,0,0,1,2.91.77,2.66,2.66,0,0,1,.15,4.24,5.79,5.79,0,0,1-2.56,1.18,10.4,10.4,0,0,1-3.18.11,4.28,4.28,0,0,0,1.34,2.08,3.34,3.34,0,0,0,2.17.76,3.44,3.44,0,0,0,1.8-.45A2.78,2.78,0,0,0,596.9,116.44Zm-4.11-6.65a2.2,2.2,0,0,0-1.86,1,3.91,3.91,0,0,0-.73,2.42,7.26,7.26,0,0,0,.07,1.06,10.5,10.5,0,0,0,2.92-.14,2,2,0,0,0,1.16-.67,2.27,2.27,0,0,0,.4-1.54,2.31,2.31,0,0,0-.56-1.5A1.76,1.76,0,0,0,592.79,109.79Z" />
        <path
          d="M608.06,119.87a6.28,6.28,0,0,1-3.32-.78,2.15,2.15,0,0,1-1.27-1.75,1,1,0,0,1,.29-.74,1.16,1.16,0,0,1,.8-.27,1,1,0,0,1,.74.29,2.05,2.05,0,0,1,.47.7,7,7,0,0,0,.41.82,2,2,0,0,0,.7.7,2.27,2.27,0,0,0,1.18.28,2.33,2.33,0,0,0,1.46-.44,1.5,1.5,0,0,0,.56-1.25,1.44,1.44,0,0,0-.66-1.26,4.6,4.6,0,0,0-1.59-.67c-.63-.15-1.25-.32-1.88-.51a3.48,3.48,0,0,1-1.61-1,2.84,2.84,0,0,1-.65-1.94,2.68,2.68,0,0,1,1.2-2.23,5.13,5.13,0,0,1,3.1-.89,5.71,5.71,0,0,1,3.17.8,2.22,2.22,0,0,1,1.22,1.81.87.87,0,0,1-.28.68,1,1,0,0,1-.73.27.91.91,0,0,1-.69-.29,2.45,2.45,0,0,1-.46-.69c-.13-.27-.26-.54-.4-.81a1.88,1.88,0,0,0-.63-.69,2.08,2.08,0,0,0-2.39.19,1.59,1.59,0,0,0-.52,1.21,1.46,1.46,0,0,0,.66,1.27,4.82,4.82,0,0,0,1.59.7c.62.15,1.25.32,1.88.51a3.51,3.51,0,0,1,1.6,1,2.78,2.78,0,0,1,.66,1.94A2.57,2.57,0,0,1,611.4,119,5.77,5.77,0,0,1,608.06,119.87Z" />
        <path
          d="M620.18,108.91a5,5,0,0,1,3.59,1.46,5.13,5.13,0,0,1,1.5,3.85,5.76,5.76,0,0,1-1.48,4.07,4.71,4.71,0,0,1-3.59,1.6,3.86,3.86,0,0,1-2.9-1.16v4a1.14,1.14,0,0,0,.45.87c.3.25.45.45.45.58v.07q0,.33-.48.33h-3.34q-.48,0-.48-.33v-.07c0-.13.14-.33.41-.58a1.17,1.17,0,0,0,.42-.87V111.94a1,1,0,0,0-.47-.81c-.32-.24-.47-.43-.47-.57v-.09c0-.19.13-.34.39-.46l2-1c.49-.25.73-.13.73.35l0,1.21a3.06,3.06,0,0,1,1.31-1.23A4.28,4.28,0,0,1,620.18,108.91Zm-.29,10.15A2.4,2.4,0,0,0,622,118a5.12,5.12,0,0,0,.73-3,7.48,7.48,0,0,0-.87-3.84,2.57,2.57,0,0,0-2.27-1.46,2.12,2.12,0,0,0-1.48.61,2.39,2.39,0,0,0-.76,1.52v4.07a3.29,3.29,0,0,0,.79,2.16A2.31,2.31,0,0,0,619.89,119.06Z" />
        <path
          d="M638,109.94c0,.09-.07.2-.22.32a3.09,3.09,0,0,0-.44.49,1.21,1.21,0,0,0-.22.73v6.37a1.2,1.2,0,0,0,.42.88q.42.39.42.57v.06c0,.21-.13.31-.38.31h-2.28a.37.37,0,0,1-.42-.42v-.88a3.64,3.64,0,0,1-3.16,1.52,4.9,4.9,0,0,1-3.61-1.52,6,6,0,0,1,0-7.92,4.86,4.86,0,0,1,3.67-1.54,3.94,3.94,0,0,1,3.12,1.38v-.81a.47.47,0,0,1,.22-.42.82.82,0,0,1,.59,0l1.92.39a.47.47,0,0,1,.39.47Zm-5.69,9.12a2.2,2.2,0,0,0,1.62-.75,2.92,2.92,0,0,0,.71-2.09v-3.51a3,3,0,0,0-.83-2,2.57,2.57,0,0,0-2-.94,2.34,2.34,0,0,0-2,1,4.55,4.55,0,0,0-.77,2.74,7.79,7.79,0,0,0,.84,3.93A2.73,2.73,0,0,0,632.34,119.06Z" />
        <path
          d="M645,119.89a5.51,5.51,0,0,1-4-1.61,5.32,5.32,0,0,1-1.63-3.92,5.1,5.1,0,0,1,1.6-3.93,5.6,5.6,0,0,1,3.93-1.52,5.26,5.26,0,0,1,3.11.87,2.48,2.48,0,0,1,1.3,2,.93.93,0,0,1-.27.69,1.09,1.09,0,0,1-.85.25,1.29,1.29,0,0,1-.94-.5,4.48,4.48,0,0,1-.68-1,3,3,0,0,0-.8-1,1.92,1.92,0,0,0-1.29-.47,2.18,2.18,0,0,0-1.82,1,4,4,0,0,0-.7,2.42,5.64,5.64,0,0,0,1.07,3.59,3.46,3.46,0,0,0,2.84,1.35,3,3,0,0,0,2.83-1.8.4.4,0,0,1,.46-.2q.28.06.24.39a3.76,3.76,0,0,1-1.33,2.42A4.48,4.48,0,0,1,645,119.89Z" />
        <path
          d="M659.62,116.44a.39.39,0,0,1,.45-.17c.18,0,.26.17.25.39a3.76,3.76,0,0,1-1.3,2.21,4.24,4.24,0,0,1-3,1,5.31,5.31,0,0,1-4-1.54,5.53,5.53,0,0,1-1.51-4,5.2,5.2,0,0,1,5.31-5.4,4.86,4.86,0,0,1,2.91.77,2.67,2.67,0,0,1,.16,4.24,5.85,5.85,0,0,1-2.56,1.18,10.47,10.47,0,0,1-3.19.11,4.35,4.35,0,0,0,1.34,2.08,3.36,3.36,0,0,0,2.18.76,3.44,3.44,0,0,0,1.8-.45A2.84,2.84,0,0,0,659.62,116.44Zm-4.11-6.65a2.22,2.22,0,0,0-1.87,1,4,4,0,0,0-.72,2.42,7.26,7.26,0,0,0,.07,1.06,10.52,10.52,0,0,0,2.92-.14,2.08,2.08,0,0,0,1.16-.67,2.27,2.27,0,0,0,.4-1.54,2.36,2.36,0,0,0-.56-1.5A1.78,1.78,0,0,0,655.51,109.79Z" />
        <path
          d="M672.51,108.91a5,5,0,0,1,3.59,1.46,5.13,5.13,0,0,1,1.5,3.85,5.76,5.76,0,0,1-1.48,4.07,4.71,4.71,0,0,1-3.59,1.6,3.91,3.91,0,0,1-3.12-1.38l0,.79c0,.28-.14.41-.44.41l-2.37,0c-.26,0-.39-.1-.39-.31v-.06c0-.12.14-.31.41-.58a1.24,1.24,0,0,0,.42-.89V106.3a1,1,0,0,0-.23-.67,2.19,2.19,0,0,0-.47-.45.5.5,0,0,1-.24-.38v-.06c0-.16.14-.31.44-.44l2.26-1.08a.67.67,0,0,1,.57-.07c.14.06.22.21.22.45v6.47A3.73,3.73,0,0,1,672.51,108.91Zm-.29,10.15a2.37,2.37,0,0,0,2-1.06,5,5,0,0,0,.74-3,7.48,7.48,0,0,0-.87-3.84,2.58,2.58,0,0,0-2.27-1.46,2.1,2.1,0,0,0-1.59.72,2.45,2.45,0,0,0-.67,1.77v3.71a3.3,3.3,0,0,0,.8,2.16A2.33,2.33,0,0,0,672.22,119.06Z" />
        <path
          d="M687.94,116.44a.39.39,0,0,1,.45-.17c.19,0,.27.17.26.39a3.76,3.76,0,0,1-1.3,2.21,4.24,4.24,0,0,1-3,1,5.3,5.3,0,0,1-4-1.54,5.49,5.49,0,0,1-1.51-4,5.2,5.2,0,0,1,5.31-5.4,4.86,4.86,0,0,1,2.91.77,2.66,2.66,0,0,1,.15,4.24,5.81,5.81,0,0,1-2.55,1.18,10.48,10.48,0,0,1-3.19.11,4.35,4.35,0,0,0,1.34,2.08,3.36,3.36,0,0,0,2.18.76,3.44,3.44,0,0,0,1.8-.45A2.82,2.82,0,0,0,687.94,116.44Zm-4.1-6.65a2.22,2.22,0,0,0-1.87,1,4,4,0,0,0-.72,2.42,9,9,0,0,0,.06,1.06,10.5,10.5,0,0,0,2.92-.14,2.07,2.07,0,0,0,1.17-.67,2.22,2.22,0,0,0,.39-1.54,2.26,2.26,0,0,0-.56-1.5A1.76,1.76,0,0,0,683.84,109.79Z" />
        <path
          d="M690.34,119.67c-.31,0-.46-.11-.46-.33v-.07c0-.14.13-.34.4-.59a1.11,1.11,0,0,0,.41-.83V106.27a1.32,1.32,0,0,0-.41-.94c-.27-.28-.4-.46-.4-.55v-.06c0-.14.12-.27.37-.4l2.22-1.1a.66.66,0,0,1,.58,0,.41.41,0,0,1,.21.38v14.28a1.08,1.08,0,0,0,.45.84c.3.26.45.45.45.58v.07q0,.33-.48.33Z" />
        <path
          d="M701.41,119.89a5.79,5.79,0,0,1-4.33-1.65,5.44,5.44,0,0,1-1.63-3.95,5.11,5.11,0,0,1,1.59-3.84,5.3,5.3,0,0,1,3.86-1.54,5.68,5.68,0,0,1,4.17,1.61,5.33,5.33,0,0,1,1.63,4,5.42,5.42,0,0,1-1.47,3.86A5,5,0,0,1,701.41,119.89Zm.32-.83a2,2,0,0,0,1.72-1,4.81,4.81,0,0,0,.66-2.71,7.58,7.58,0,0,0-1-4,2.91,2.91,0,0,0-2.49-1.65,2.19,2.19,0,0,0-1.88,1,4.63,4.63,0,0,0-.69,2.73,7.36,7.36,0,0,0,1,3.89A3,3,0,0,0,701.73,119.06Z" />
        <path
          d="M722.11,108.91a1.74,1.74,0,0,1,1.56,1,4.89,4.89,0,0,1,.57,2.53,8.64,8.64,0,0,1-1.59,5.45,4.71,4.71,0,0,1-3.81,2,2.83,2.83,0,0,1-2.94-2,4.1,4.1,0,0,1-3.69,2,3.33,3.33,0,0,1-2.45-1,4.32,4.32,0,0,1-1-3.15V111.3a1.24,1.24,0,0,0-.41-.91c-.28-.27-.42-.46-.42-.56v-.06a.38.38,0,0,1,.37-.4l2.33-.37c.5-.08.75.07.75.44l0,7.29a2.85,2.85,0,0,0,.33,1.53,1.14,1.14,0,0,0,1,.58,2.35,2.35,0,0,0,2.06-1.38,6.09,6.09,0,0,0,.79-3.13v-3a1.25,1.25,0,0,0-.42-.91c-.28-.27-.41-.46-.41-.56v-.06c0-.22.13-.36.39-.4l2.15-.44q.75-.14.75.51l0,7.24q0,2.16,1.38,2.16a3,3,0,0,0,2.32-1.54,6,6,0,0,0,1.08-3.56,2.43,2.43,0,0,0-.29-1.18,3,3,0,0,0-.64-.83,3.85,3.85,0,0,1-.64-.73,1.7,1.7,0,0,1-.29-.93,1.11,1.11,0,0,1,.33-.84A1.21,1.21,0,0,1,722.11,108.91Z" />
        <path
          d="M727.3,119.89a1.84,1.84,0,0,1-1.23-.41,1.39,1.39,0,0,1-.49-1.15,1.42,1.42,0,0,1,.49-1.17,1.84,1.84,0,0,1,1.23-.41,1.8,1.8,0,0,1,1.2.41,1.42,1.42,0,0,1,.49,1.17,1.39,1.39,0,0,1-.49,1.15A1.8,1.8,0,0,1,727.3,119.89Z" />
      </g>
      <rect class="cls-3" x="284.87" y="151.41" width="441.64" height="64.66" rx="7" />
      <g>
        <path
          d="M291.1,271a5.47,5.47,0,0,1-4-1.61,5.31,5.31,0,0,1-1.64-3.92,5.13,5.13,0,0,1,1.61-3.93,5.59,5.59,0,0,1,3.93-1.51,5.28,5.28,0,0,1,3.11.86,2.48,2.48,0,0,1,1.3,2,1,1,0,0,1-.27.7,1.14,1.14,0,0,1-.85.25,1.3,1.3,0,0,1-.94-.51,4.28,4.28,0,0,1-.68-1,3.27,3.27,0,0,0-.8-1,1.91,1.91,0,0,0-1.29-.46,2.14,2.14,0,0,0-1.82,1,4,4,0,0,0-.7,2.41,5.58,5.58,0,0,0,1.07,3.59,3.45,3.45,0,0,0,2.83,1.35,3,3,0,0,0,2.84-1.8.42.42,0,0,1,.46-.2.31.31,0,0,1,.24.4,3.74,3.74,0,0,1-1.33,2.41A4.45,4.45,0,0,1,291.1,271Z" />
        <path
          d="M297.2,270.82c-.3,0-.46-.11-.46-.33v-.07c0-.15.14-.34.41-.59a1.12,1.12,0,0,0,.4-.84V257.42a1.3,1.3,0,0,0-.4-.94c-.27-.28-.41-.47-.41-.55v-.07c0-.13.13-.26.38-.39l2.21-1.1a.66.66,0,0,1,.59,0,.43.43,0,0,1,.2.39V269a1.12,1.12,0,0,0,.45.85c.3.25.45.45.45.58v.07q0,.33-.48.33Z" />
        <path
          d="M303,270.82c-.31,0-.46-.11-.46-.33v-.09c0-.13.13-.32.4-.57a1.15,1.15,0,0,0,.41-.86v-5.75a1.4,1.4,0,0,0-.41-1c-.27-.29-.4-.48-.4-.57v-.06c0-.12.13-.25.39-.4l2.2-1.1a.66.66,0,0,1,.58,0,.44.44,0,0,1,.21.41V269a1.11,1.11,0,0,0,.45.86q.45.38.45.57v.09q0,.33-.48.33Zm1.62-12.37a1.84,1.84,0,0,1-1.31-.46,1.63,1.63,0,0,1,0-2.37,1.84,1.84,0,0,1,1.31-.46,1.8,1.8,0,0,1,1.29.46,1.68,1.68,0,0,1,0,2.37A1.8,1.8,0,0,1,304.6,258.45Z" />
        <path
          d="M313.63,271a5.47,5.47,0,0,1-4-1.61A5.3,5.3,0,0,1,308,265.5a5.13,5.13,0,0,1,1.6-3.93,5.59,5.59,0,0,1,3.93-1.51,5.26,5.26,0,0,1,3.11.86,2.48,2.48,0,0,1,1.3,2,1,1,0,0,1-.27.7,1.13,1.13,0,0,1-.85.25,1.3,1.3,0,0,1-.94-.51,4.28,4.28,0,0,1-.68-1,3.13,3.13,0,0,0-.8-1,1.91,1.91,0,0,0-1.29-.46,2.15,2.15,0,0,0-1.82,1,4,4,0,0,0-.7,2.41,5.64,5.64,0,0,0,1.07,3.59,3.45,3.45,0,0,0,2.84,1.35,3,3,0,0,0,2.83-1.8.42.42,0,0,1,.46-.2.31.31,0,0,1,.24.4,3.74,3.74,0,0,1-1.33,2.41A4.45,4.45,0,0,1,313.63,271Z" />
        <path
          d="M329.86,269.34a2,2,0,0,0,.56.48c.3.19.45.4.45.6v.07c0,.22-.13.33-.38.33h-3.42c-.26,0-.4-.12-.4-.36v-.06a.78.78,0,0,1,.31-.5.4.4,0,0,0,.13-.56l-2.5-3.64a9.19,9.19,0,0,1-1.93.26v3a1.07,1.07,0,0,0,.46.84c.31.26.46.46.46.61v.09q0,.33-.48.33h-3.41q-.48,0-.48-.33v-.09c0-.15.14-.35.42-.61a1.13,1.13,0,0,0,.41-.84V257.46a1.32,1.32,0,0,0-.46-.95c-.31-.3-.46-.5-.46-.61v0c0-.16.13-.29.4-.39l2.39-1.12a.58.58,0,0,1,.55,0,.45.45,0,0,1,.2.41v10.1a4.89,4.89,0,0,0,2-.43,2.66,2.66,0,0,0,1.15-.9,6.75,6.75,0,0,0,.63-1.12,7.32,7.32,0,0,0,.41-1.11,1.83,1.83,0,0,1,.44-.84,1,1,0,0,1,.79-.34,1,1,0,0,1,1.16,1.12,3.74,3.74,0,0,1-.62,1.83,5.48,5.48,0,0,1-1.86,1.81Z" />
        <path
          d="M350.24,255.22c.32,0,.48.11.48.31v.07c0,.11-.15.3-.46.57a1.12,1.12,0,0,0-.46.88v13c0,.5-.24.75-.71.75h-.79c-.29,0-.58-.21-.87-.62l-8.83-11.95V269a1.18,1.18,0,0,0,.48.88c.32.28.48.48.48.61v.07c0,.2-.16.31-.48.31h-2.26c-.32,0-.48-.11-.48-.31v-.07c0-.13.14-.33.42-.61a1.21,1.21,0,0,0,.43-.88V257.07a1.17,1.17,0,0,0-.43-.88c-.28-.26-.42-.46-.42-.59v-.07c0-.2.16-.31.48-.31h3.88c.28,0,.42.11.42.31v.07c0,.08-.08.21-.25.36a1.32,1.32,0,0,0-.35.44c-.07.14,0,.36.16.67l7.71,10.52V257.05a1.12,1.12,0,0,0-.46-.88c-.31-.27-.46-.46-.46-.57v-.07c0-.2.16-.31.48-.31Z" />
        <path
          d="M353.38,270.82c-.33,0-.49-.11-.49-.31v-.07c0-.13.14-.32.42-.58a1.18,1.18,0,0,0,.42-.89v-11.9a1.2,1.2,0,0,0-.42-.9q-.42-.41-.42-.57v-.07c0-.2.15-.31.44-.31h9.55a.58.58,0,0,1,.62.55l.53,2.37c.07.34,0,.51-.35.51h-.11a.92.92,0,0,1-.63-.36,5.5,5.5,0,0,1-.62-.8,3.71,3.71,0,0,0-.68-.81,1.26,1.26,0,0,0-.84-.36h-3.69c-.5,0-.75.29-.75.86v5.11h3.38a.81.81,0,0,0,.58-.23,1.51,1.51,0,0,0,.36-.49,2.6,2.6,0,0,1,.28-.49c.11-.16.22-.23.32-.23h.13c.22,0,.33.13.33.41v3.12q0,.42-.33.42h-.13a.47.47,0,0,1-.32-.22,3.24,3.24,0,0,1-.28-.47,1.59,1.59,0,0,0-.36-.48.89.89,0,0,0-.58-.22h-3.38l0,5.14a1.34,1.34,0,0,0,.25.83.89.89,0,0,0,.74.34h4.15a1.2,1.2,0,0,0,.83-.38,2.84,2.84,0,0,0,.64-.83,3.81,3.81,0,0,1,.57-.83.9.9,0,0,1,.64-.38h.15a.31.31,0,0,1,.28.16.46.46,0,0,1,.05.35l-.5,2.43c-.09.39-.3.58-.64.58Z" />
        <path
          d="M378.7,269a2.85,2.85,0,0,0,.62.63c.24.18.43.33.56.45a.51.51,0,0,1,.2.37v.07c0,.2-.15.31-.46.31h-4.06c-.31,0-.47-.11-.47-.31v-.07q0-.17.27-.42a2.65,2.65,0,0,0,.38-.42c.08-.13.05-.33-.1-.61l-3.73-5-3.6,5a.71.71,0,0,0,.05.88,1.4,1.4,0,0,1,.34.57v.07c0,.2-.16.31-.48.31h-2.74c-.31,0-.46-.11-.46-.31v-.07a.47.47,0,0,1,.25-.37l.65-.45a2.6,2.6,0,0,0,.65-.63l4.57-6-4.41-5.9a2.82,2.82,0,0,0-.64-.65c-.25-.18-.44-.33-.57-.44a.48.48,0,0,1-.2-.36v-.07c0-.2.16-.31.46-.31h4c.31,0,.46.11.46.31v.07a.7.7,0,0,1-.25.43,3,3,0,0,0-.37.42c-.07.12,0,.32.11.6l3.56,4.74,3.36-4.74c.15-.28.18-.48.09-.61a3.06,3.06,0,0,0-.41-.43c-.18-.16-.27-.3-.27-.41v-.07c0-.2.15-.31.46-.31h2.94c.31,0,.46.11.46.31v.07c0,.13-.08.25-.26.37l-.68.44a2.32,2.32,0,0,0-.68.64l-4.22,5.77Z" />
        <path
          d="M385.11,270.82c-.31,0-.46-.11-.46-.31v-.07c0-.13.14-.32.43-.58a1.17,1.17,0,0,0,.42-.87V256.41h-2.39a1.08,1.08,0,0,0-.91.61,10.65,10.65,0,0,0-.67,1.23c-.19.41-.39.62-.59.62h-.27c-.29,0-.42-.17-.37-.51l.39-2.59a.57.57,0,0,1,.62-.55h11a.59.59,0,0,1,.64.55l.48,2.62a.41.41,0,0,1-.06.35.39.39,0,0,1-.31.13h-.26c-.17,0-.33-.13-.51-.39a4.79,4.79,0,0,1-.46-.84,3.1,3.1,0,0,0-.55-.85,1,1,0,0,0-.77-.38h-2.39V269a1.13,1.13,0,0,0,.44.87c.29.26.44.45.44.58v.07c0,.2-.16.31-.49.31Z" />
        <path
          d="M402.48,271a2.87,2.87,0,0,1-2.25-.91,3.8,3.8,0,0,1-.83-2.64v-6.13h-1.25a.32.32,0,0,1-.37-.37v-.31c0-.26.12-.4.37-.4h.68a1.72,1.72,0,0,0,1.35-.57,2.79,2.79,0,0,0,.65-1.56c0-.32.19-.48.44-.48h.33q.42,0,.42.48l0,2.13h2.77a.39.39,0,0,1,.28.11.42.42,0,0,1,.11.29V261c0,.25-.13.37-.39.37H402v6.15a1.88,1.88,0,0,0,.35,1.2,1.11,1.11,0,0,0,.9.42,1.39,1.39,0,0,0,1.56-1.14.43.43,0,0,1,.26-.22.39.39,0,0,1,.32.05.29.29,0,0,1,.14.28,2.91,2.91,0,0,1-.84,2.07A3,3,0,0,1,402.48,271Z" />
        <path
          d="M412.27,271a5.77,5.77,0,0,1-4.32-1.64,5.42,5.42,0,0,1-1.63-4,5.17,5.17,0,0,1,1.58-3.84,5.36,5.36,0,0,1,3.87-1.53,5.64,5.64,0,0,1,4.17,1.61,5.34,5.34,0,0,1,1.62,3.94,5.43,5.43,0,0,1-1.47,3.87A5,5,0,0,1,412.27,271Zm.33-.83a2,2,0,0,0,1.71-1,4.78,4.78,0,0,0,.66-2.71,7.46,7.46,0,0,0-1-4,2.88,2.88,0,0,0-2.49-1.65,2.21,2.21,0,0,0-1.88.95,4.64,4.64,0,0,0-.69,2.74,7.48,7.48,0,0,0,1,3.89A3.07,3.07,0,0,0,412.6,270.2Z" />
        <path
          d="M429.09,271a5.45,5.45,0,0,1-4-1.61,5.27,5.27,0,0,1-1.64-3.92,5.13,5.13,0,0,1,1.6-3.93,5.59,5.59,0,0,1,3.93-1.51,5.26,5.26,0,0,1,3.11.86,2.5,2.5,0,0,1,1.31,2,.94.94,0,0,1-.28.7,1.1,1.1,0,0,1-.84.25,1.32,1.32,0,0,1-.95-.51,4.59,4.59,0,0,1-.68-1,3,3,0,0,0-.8-1,1.9,1.9,0,0,0-1.28-.46,2.16,2.16,0,0,0-1.83,1,4,4,0,0,0-.7,2.41,5.59,5.59,0,0,0,1.08,3.59,3.43,3.43,0,0,0,2.83,1.35,3,3,0,0,0,2.83-1.8.42.42,0,0,1,.46-.2.33.33,0,0,1,.25.4,3.74,3.74,0,0,1-1.33,2.41A4.46,4.46,0,0,1,429.09,271Z" />
        <path
          d="M440.62,271a5.77,5.77,0,0,1-4.32-1.64,5.42,5.42,0,0,1-1.63-4,5.17,5.17,0,0,1,1.58-3.84,5.36,5.36,0,0,1,3.87-1.53,5.64,5.64,0,0,1,4.17,1.61,5.34,5.34,0,0,1,1.62,3.94,5.43,5.43,0,0,1-1.47,3.87A5,5,0,0,1,440.62,271Zm.33-.83a2,2,0,0,0,1.71-1,4.78,4.78,0,0,0,.66-2.71,7.46,7.46,0,0,0-1-4,2.88,2.88,0,0,0-2.49-1.65,2.21,2.21,0,0,0-1.88.95,4.64,4.64,0,0,0-.69,2.74,7.39,7.39,0,0,0,1.05,3.89A3,3,0,0,0,441,270.2Z" />
        <path
          d="M458.28,269a1.3,1.3,0,0,0,.4.87c.26.25.39.45.39.58v.09q0,.33-.48.33h-3.21q-.48,0-.48-.33v-.09c0-.13.13-.33.4-.58a1.13,1.13,0,0,0,.39-.87l-.22-4.24c-.11-2.41-.87-3.62-2.31-3.62a2.07,2.07,0,0,0-1.67.76,3,3,0,0,0-.63,2V269a1.11,1.11,0,0,0,.45.86q.45.38.45.57v.09c0,.22-.17.33-.49.33h-3.4c-.31,0-.46-.11-.46-.33v-.09c0-.13.14-.32.44-.57a1.12,1.12,0,0,0,.44-.86v-5.88a.93.93,0,0,0-.26-.68,2.69,2.69,0,0,0-.49-.43.45.45,0,0,1-.24-.36v-.07c0-.15.13-.28.39-.4l2.13-1c.24-.1.41-.11.52,0a.49.49,0,0,1,.16.43V262a3.44,3.44,0,0,1,1.34-1.41,3.93,3.93,0,0,1,2-.5,3.88,3.88,0,0,1,2.86,1.16,5.43,5.43,0,0,1,1.31,3.6Z" />
        <path
          d="M464.25,271a2.87,2.87,0,0,1-2.25-.91,3.8,3.8,0,0,1-.82-2.64v-6.13h-1.26a.33.33,0,0,1-.37-.37v-.31c0-.26.13-.4.37-.4h.69a1.75,1.75,0,0,0,1.35-.57,2.78,2.78,0,0,0,.64-1.56c0-.32.19-.48.44-.48h.33q.42,0,.42.48l0,2.13h2.77a.38.38,0,0,1,.39.4V261c0,.25-.13.37-.39.37h-2.77v6.15a1.88,1.88,0,0,0,.35,1.2,1.14,1.14,0,0,0,.9.42,1.39,1.39,0,0,0,1.56-1.14.42.42,0,0,1,.27-.22.37.37,0,0,1,.31.05.3.3,0,0,1,.15.28,2.88,2.88,0,0,1-.85,2.07A3,3,0,0,1,464.25,271Z" />
        <path
          d="M468.84,270.82c-.31,0-.46-.11-.46-.33v-.09c0-.13.13-.32.41-.57a1.14,1.14,0,0,0,.4-.86v-5.75a1.39,1.39,0,0,0-.4-1c-.28-.29-.41-.48-.41-.57v-.06c0-.12.13-.25.39-.4l2.2-1.1a.66.66,0,0,1,.58,0,.44.44,0,0,1,.21.41V269a1.11,1.11,0,0,0,.45.86q.45.38.45.57v.09q0,.33-.48.33Zm1.63-12.37a1.85,1.85,0,0,1-1.32-.46,1.63,1.63,0,0,1,0-2.37,1.85,1.85,0,0,1,1.32-.46,1.8,1.8,0,0,1,1.28.46,1.68,1.68,0,0,1,0,2.37A1.8,1.8,0,0,1,470.47,258.45Z" />
        <path
          d="M485.05,269a1.3,1.3,0,0,0,.4.87c.26.25.39.45.39.58v.09c0,.22-.16.33-.49.33h-3.2c-.32,0-.49-.11-.49-.33v-.09c0-.13.14-.33.41-.58a1.13,1.13,0,0,0,.39-.87l-.22-4.24c-.11-2.41-.88-3.62-2.31-3.62a2.07,2.07,0,0,0-1.67.76,3,3,0,0,0-.64,2V269a1.11,1.11,0,0,0,.45.86q.45.38.45.57v.09q0,.33-.48.33h-3.4c-.31,0-.46-.11-.46-.33v-.09c0-.13.14-.32.44-.57a1.12,1.12,0,0,0,.44-.86v-5.88a.93.93,0,0,0-.26-.68,3.08,3.08,0,0,0-.49-.43.45.45,0,0,1-.24-.36v-.07c0-.15.13-.28.39-.4l2.13-1c.24-.1.41-.11.52,0a.49.49,0,0,1,.16.43V262a3.44,3.44,0,0,1,1.34-1.41,4.16,4.16,0,0,1,4.86.66,5.43,5.43,0,0,1,1.31,3.6Z" />
        <path
          d="M497.32,268.75a1.64,1.64,0,0,0,.18.86.62.62,0,0,0,.38.32,1.06,1.06,0,0,1,.39.13.36.36,0,0,1,.17.34c0,.36-.55.55-1.64.55a2.09,2.09,0,0,1-1.37-.38,1.48,1.48,0,0,1-.41-1.25,3.49,3.49,0,0,1-3.3,1.71,3.79,3.79,0,0,1-3-1.22,5.1,5.1,0,0,1-1.12-3.56v-3.8a1.23,1.23,0,0,0-.42-.91c-.28-.27-.42-.46-.42-.56v-.07c0-.22.14-.35.4-.39l2.3-.38q.75-.11.75.33l0,6c0,2.33.73,3.49,2.19,3.49a2.06,2.06,0,0,0,1.68-.82,3.28,3.28,0,0,0,.67-2.14v-4.57a1.23,1.23,0,0,0-.42-.91c-.29-.27-.43-.46-.43-.56v-.07c0-.22.12-.35.37-.39l2.35-.38c.47-.07.7,0,.7.33Z" />
        <path
          d="M508.61,267.59a.42.42,0,0,1,.45-.18.33.33,0,0,1,.25.4A3.72,3.72,0,0,1,508,270a4.29,4.29,0,0,1-3,1,5.32,5.32,0,0,1-3.95-1.53,5.52,5.52,0,0,1-1.52-4,5.2,5.2,0,0,1,5.32-5.4,4.89,4.89,0,0,1,2.91.76,2.66,2.66,0,0,1,.15,4.24,5.8,5.8,0,0,1-2.56,1.19,10.73,10.73,0,0,1-3.18.11,4.21,4.21,0,0,0,1.34,2.07,3.28,3.28,0,0,0,2.17.76,3.44,3.44,0,0,0,1.8-.45A2.76,2.76,0,0,0,508.61,267.59Zm-4.11-6.66a2.22,2.22,0,0,0-1.86,1,3.92,3.92,0,0,0-.73,2.43,7.22,7.22,0,0,0,.07,1.05,10.53,10.53,0,0,0,2.92-.13,2.1,2.1,0,0,0,1.16-.67,2.65,2.65,0,0,0-.16-3A1.79,1.79,0,0,0,504.5,260.93Z" />
        <path
          d="M512.47,271a1.88,1.88,0,0,1-1.23-.4,1.43,1.43,0,0,1-.48-1.15,1.45,1.45,0,0,1,.48-1.18,1.88,1.88,0,0,1,1.23-.41,1.81,1.81,0,0,1,1.21.41,1.46,1.46,0,0,1,.49,1.18,1.44,1.44,0,0,1-.49,1.15A1.8,1.8,0,0,1,512.47,271Z" />
      </g>
    </g>
  </g>
</svg>