<?xml version="1.0" encoding="utf-8"?>
<!-- Generator: Adobe Illustrator 24.2.3, SVG Export Plug-In . SVG Version: 6.00 Build 0)  -->
<svg version="1.1" xmlns="http://www.w3.org/2000/svg" xmlns:xlink="http://www.w3.org/1999/xlink" x="0px" y="0px"
	 viewBox="0 0 1920 1080" style="enable-background:new 0 0 1920 1080;" xml:space="preserve">
<style type="text/css">
	.st0{display:none;}
	.st1{display:inline;fill:#22202E;}
	.st2{display:inline;fill:#4C678B;}
	.st3{display:inline;fill:#80889F;}
	.st4{display:inline;opacity:0.5;fill:#676F84;}
	.st5{display:inline;fill:none;}
	.st6{display:inline;}
	.st7{font-family:'RecoletaAlt-Bold';}
	.st8{font-size:36px;}
	.st9{letter-spacing:2;}
	.st10{display:inline;fill:none;stroke:#000000;stroke-width:2;stroke-miterlimit:10;}
	.st11{display:inline;fill:#140303;}
	.st12{fill:#80889F;}
</style>
<g id="Layer_1" class="st0">
	<path class="st1" d="M939.9,338.9l-162.7,93.9c-5.7,3.3-13.1,1.3-16.4-4.4l-20.4-35.3c-3.3-5.7-1.3-13.1,4.4-16.4l162.7-93.9
		c5.7-3.3,13.1-1.3,16.4,4.4l20.4,35.3C947.6,328.2,945.7,335.6,939.9,338.9z"/>
	<path class="st2" d="M1085.8,614.9l-142.3,82.2c-21.6,12.5-49.4,5-61.9-16.6L770.9,488.8c-12.5-21.6-5-49.4,16.6-61.9l142.3-82.2
		c21.6-12.5,49.4-5,61.9,16.6L1102.3,553C1114.8,574.6,1107.3,602.4,1085.8,614.9z"/>
	<path class="st3" d="M999.3,374.3l-132.5,76.5c-12.7,7.4-17.1,23.6-9.7,36.4l48.6,84.1c7.4,12.7,23.6,17.1,36.4,9.7l132.5-76.5
		L999.3,374.3z"/>
</g>
<g id="Layer_2" class="st0">
	<path class="st4" d="M1,382.7c382,32.4,549.2-124,1028-175.9c257-27.8,654,46,890-99.9V0H1V382.7z"/>
</g>
<g id="Layer_3" class="st0">
	<rect x="936.3" y="523" class="st5" width="96.6" height="27.4"/>
	<text transform="matrix(1 0 0 1 936.3374 550.2559)" class="st6 st7 st8 st9">pillr.</text>
	<circle class="st10" cx="894.9" cy="541" r="25"/>
	<path class="st11" d="M908.7,520.2c-11.5-7.7-27-4.6-34.7,6.8c-7.7,11.5-4.6,27,6.8,34.7L908.7,520.2z"/>
</g>
<g id="Layer_4">
	<path class="st12" d="M957.3,513.3l15.5,45.1c2.1,6.2-1.2,13.1-7.4,15.3l-5.1,1.8c-6.2,2.1-13.1-1.2-15.3-7.4l-15.5-45.1
		c-2.1-6.2,1.2-13.1,7.4-15.3l5.1-1.7C948.3,503.7,955.2,507.1,957.3,513.3z"/>
</g>
</svg>
